<?xml version="1.0" encoding="UTF-8"?>
<svg id="a" data-name="Layer 1" xmlns="http://www.w3.org/2000/svg" viewBox="0 0 300 300">
  <defs>
    <style>
      .b {
        fill: #303232;
        stroke-width: 0px;
      }
    </style>
  </defs>
  <path class="b" d="M226.27,283.56c-6.03,0-11.79-2.26-16.21-6.37-9.58-9.05-9.73-20.83-.45-34.99l2.03-3.1h-75.82l3.12,3.36c5.75,6.19,8.12,14.82,6.34,23.08-1.17,5.06-4.06,9.63-8.16,12.87-4.2,3.32-9.46,5.15-14.81,5.15-5.54,0-10.94-1.94-15.21-5.47-10.27-8.7-10.76-19.56-1.61-36.31l1.33-2.43-2.72-.5c-1-.18-1.98-.34-2.96-.5-2.01-.32-3.92-.62-5.75-1.12-15.59-4.21-26.74-17.87-27.73-33.99-5.32-47.53-10.7-95.82-15.99-143.63-.1-.88-.24-1.76-.38-2.63-.09-.54-.17-1.07-.25-1.61-2.06-14.22-5.81-17.81-20.08-19.23h-.09s-.09,0-.09,0c-5.47-.04-9.89-4.52-9.86-10,.04-5.44,4.49-9.86,9.92-9.86h.43s.08,0,.08,0c.58-.03,1.16-.04,1.74-.04,18.97,0,34.99,14.21,37.27,33.06.22,1.64.41,3.24.63,5.16l.5,4.31h10.32c55.93,0,111.86.02,167.79.05.36,0,.68,0,1,0,3.51,0,7.02.36,10.46,1.07,5.31,1.06,9.87,4.12,12.86,8.61,2.99,4.49,4.06,9.88,3,15.17l-.08.38c-3.38,16.51-7.06,33.22-10.62,49.39-1.53,6.93-3.05,13.86-4.56,20.8-1.42,6.48-2.85,12.95-4.28,19.22-2.23,12.2-12.77,21-25.09,21h0c-.58,0-1.16-.02-1.74-.06h-.12c-16.69-.16-34.85-.23-57.14-.23-12.57,0-25.14.02-37.71.04-12.57.02-25.14.04-37.71.04l-10.15.02-.08,1.92c-.33,8.11,1.17,13.62,4.72,17.32,3.48,3.63,8.74,5.32,16.54,5.33,25.61.02,51.23.03,76.84.03s51.23-.01,76.84-.03c.74-.02,1.42-.03,2.09-.03,1.83,0,3.67.07,5.49.22,4.87.39,8.67,4.36,8.85,9.24.27,5.09-3.62,9.51-8.68,9.88-3.81.28-7.62.32-11.17.32,0,0-5-.01-6-.01-1.29,0-2.57,0-3.85.02h0c-.92,0-1.84.08-3.01.19-.64.06-1.36.12-2.22.18l-4.13.3,2.81,3.05c5.96,6.48,8.31,15.46,6.26,24.03-1.36,5.24-4.58,9.86-9.06,12.97-4.05,2.86-8.79,4.36-13.72,4.36ZM114.62,261.91c.98,3.4,4.09,5.82,7.75,5.82,4.31-.04,7.73-3.54,7.69-7.79-.04-4.33-3.59-7.85-7.92-7.85h-.07c-.17,0-.34,0-.51.02h-.13c-4.07.56-7.14,4.07-7.13,8.18v1.55s.32.08.32.08ZM226.04,252.19c-4.27.08-7.68,3.62-7.6,7.9.08,4.19,3.56,7.6,7.75,7.6h.15c4.27-.08,7.68-3.63,7.6-7.9-.08-4.19-3.56-7.6-7.75-7.6h-.15ZM231.27,178.55c.39.05.79.07,1.18.07,4.77,0,8.84-3.56,9.49-8.29.8-3.3,1.47-6.58,2.18-10.06.17-.84.35-1.69.53-2.56.2-.95-.04-1.95-.65-2.71h0c-.62-.77-1.55-1.22-2.54-1.22h-24.35l-.2,1.78c-.75,6.78-1.5,13.18-2.39,20.7l-.26,2.23h2.25c1.63,0,3.22-.02,4.79-.04,1.5-.02,2.99-.03,4.45-.03,2.14,0,3.89.04,5.52.12ZM138.87,156.11c.46,4.32.91,8.41,1.36,12.48l1.05,9.58h57.04l2.38-20.59c.11-.92-.18-1.85-.79-2.55h0c-.63-.72-1.53-1.13-2.49-1.13h-58.79l.24,2.21ZM86.6,178.01h38.89l-3.08-24.23h-40.2l2.42,22.45,1.97,1.79ZM139.83,137.32h63.2l2.44-22.35h-71.23l2.13,19.25c.09.85.5,1.64,1.13,2.21h0c.64.57,1.47.89,2.33.89ZM218.95,137.31h30.21l4.96-22.52h-32.55l-2.61,22.52ZM80.32,137.31h40.4l-.26-2.23c-.37-3.21-.74-6.27-1.1-9.22-.38-3.1-.74-6.08-1.07-8.99l-.2-1.77h-40.37l2.59,22.21ZM225.86,76.35c-.48,4.25-.91,8.26-1.35,12.31l-1.04,9.51h34.24l.35-1.57c.32-1.43.64-2.83.96-4.22.71-3.09,1.39-6.01,1.94-9.02.41-2.22.63-4.74-.85-6.56-1.45-1.79-3.89-2.09-5.86-2.15-3.15-.1-6.57-.14-10.75-.14-2.53,0-5.08.02-7.66.03-2.63.02-5.29.03-8,.03h-1.79l-.2,1.78ZM132.51,98.09h74.92l2.64-22.93h-80.54l2.99,22.93ZM76.02,98.09h40.18l-2.45-22.97h-40.65l2.92,22.97Z"/>
</svg>