<?xml version="1.0" encoding="UTF-8"?>
<svg id="a" data-name="Layer 1" xmlns="http://www.w3.org/2000/svg" viewBox="0 0 300 300">
  <defs>
    <style>
      .b {
        fill: #303232;
        stroke-width: 0px;
      }
    </style>
  </defs>
  <path class="b" d="M265.51,84.82c-36.37-18.11-73.35-36.6-109.88-54.93-1.7-.95-3.63-1.45-5.57-1.45s-3.87.5-5.54,1.43c-36.45,18.32-73.45,36.79-109.89,54.86-4.22,1.68-6.82,5.86-6.47,10.31.03,55.35.04,110.71.05,166.06,0,7.66,2.88,10.51,10.64,10.51h110.09v.02h112.34c7.55,0,10.49-2.92,10.49-10.43-.05-55.24-.03-111.11.04-165.97.39-4.53-2.17-8.73-6.31-10.42ZM205.45,198.56h-18.97v-47.78c.07-.61.07-1.23,0-1.84-.46-4.1-3.91-7.19-8.03-7.19-.28,0-.57.01-.85.04h-55.31c-.26-.02-.51-.04-.77-.04-.29,0-.58.02-.87.05-2.14.23-4.06,1.28-5.4,2.96-1.34,1.66-1.95,3.74-1.74,5.86v47.96h-1.84c-1.94,0-3.88,0-5.82-.01-1.94,0-3.88-.01-5.83-.01s-3.84,0-5.77.02c-.33-.04-.66-.06-.98-.06-.36,0-.72.02-1.07.07-4.49.59-7.67,4.7-7.12,9.19v47.33h-12.03V115.45h153.88v139.71h-12.02v-47.01c0-6.5-3.01-9.54-9.47-9.59ZM198.57,214.87v40.24h-40.36v-40.24s40.36,0,40.36,0ZM170.16,158.02v40.36h-40.36v-40.36h40.36ZM141.75,214.87v40.31h-40.34v-40.31h40.34ZM150.01,45.58c.63,0,1.25.17,1.85.52,33.91,17.02,68.19,34.17,101.9,50.96l.06.03.06.02c1.06.36,1.73,1.39,1.64,2.58-.03,51.36-.05,102.71-.05,154.06,0,.44-.02.89-.05,1.38h-12.08V109.42c0-7.45-2.88-10.35-10.26-10.35H66.83c-7.23,0-10.18,2.94-10.18,10.16v145.98h-12.15v-1.76c.03-50.95,0-102.61-.06-153.66-.11-1.2.6-2.3,1.74-2.69l.06-.02.06-.03c33.95-16.9,68.22-34.04,101.92-50.97.54-.32,1.16-.49,1.79-.49Z"/>
</svg>