<?xml version="1.0" encoding="UTF-8"?>
<svg id="a" data-name="Layer 1" xmlns="http://www.w3.org/2000/svg" viewBox="0 0 300 300">
  <defs>
    <style>
      .b {
        fill: #303232;
        stroke-width: 0px;
      }
    </style>
  </defs>
  <path class="b" d="M294.28,198.47c-.22-30.36-.19-61.23-.15-91.09.01-11.09.03-22.19.03-33.28.19-1.42.19-2.86,0-4.28-1.08-7.76-7.79-13.62-15.62-13.62-.68,0-1.37.04-2.04.13H51.54c-1.41,0-2.83.09-4.22.27-6.59.86-11.84,6.05-12.78,12.63v.11c-.32,3.69-.44,7.43-.37,11.08v4.41h-10.95c-.63-.08-1.28-.12-1.92-.12-.73,0-1.46.05-2.18.15-8.51,1.2-14.47,9.06-13.35,17.56v124.93c-.22,1.51-.21,3.04,0,4.55,1.13,7.71,7.86,13.53,15.64,13.53.72,0,1.45-.05,2.17-.15h224.47c.65.08,1.32.12,1.97.12.72,0,1.45-.05,2.17-.15,8.61-1.19,14.66-9.13,13.55-17.73v-10.8c.71,0,1.42-.02,2.12-.04,1.26-.02,2.51-.05,3.73-.05,1.69,0,3.08.05,4.3.14.62.07,1.25.11,1.88.11s1.3-.04,1.95-.11c9.05-1.07,15.55-9.27,14.55-18.31ZM253.71,85.24c-1.5-.29-3.03-.43-4.56-.43-.34,0-.69,0-.95.02H46.34c0-.95-.01-1.89-.02-2.82-.03-3.68-.06-7.17.09-10.69.04-1.58,1.31-2.83,2.89-2.85h.15c.71-.07,1.44-.1,2.16-.1.26,0,.51,0,.83.01h223.64c5.4,0,6.02.61,6.02,5.89v124.65c0,5.15-.6,5.74-5.85,5.74h-10.5v-102.75c.74-7.73-4.38-14.88-12.04-16.68ZM135.8,96.9l2-.03h110.51c4.59,0,5.39.8,5.39,5.36v125.48c0,4.6-.85,5.47-5.36,5.47H23.03c-4.33,0-5.2-.89-5.2-5.27v-125.77c0-4.46.77-5.24,5.17-5.24h112.8Z"/>
  <path class="b" d="M33.15,203.61h.15c.29-.02.57-.03.86-.03.32,0,.65.01.97.04,3.51.26,6.71,1.87,9.01,4.54,2.3,2.67,3.43,6.07,3.17,9.58v.08s0,.08,0,.08c.05,6.23,1.99,8.13,8.29,8.13h82.28s78.26-.01,78.26-.01c6.02,0,7.87-1.83,7.94-7.83v-.09s0-.09,0-.09c-.06-.71-.06-1.43,0-2.14.54-6.9,6.38-12.31,13.3-12.31.35,0,.71.01,1.07.04h.09s.09,0,.09,0c6.04-.06,7.88-1.9,7.88-7.89v-61.3c0-6.1-1.96-8.05-8.07-8.05h-.15c-.33.03-.66.04-.99.04-.27,0-.54,0-.81-.02-7.27-.45-12.83-6.73-12.38-14v-.15c-.09-6.53-1.9-8.32-8.38-8.32H55.73c-6.47,0-8.36,1.87-8.42,8.35v.08s0,.08,0,.08c.04.57.04,1.14,0,1.71-.43,6.87-6.16,12.25-13.03,12.25-.28,0-.56,0-.84-.03h-.14c-6.45.03-8.41,1.98-8.41,8.35v60.47c0,6.58,1.78,8.4,8.26,8.46ZM212.2,116.14c1.45,11.58,10.54,20.71,22.12,22.2v53.24c-11.54,1.55-20.68,10.69-22.23,22.23H59.27c-1.43-11.62-10.54-20.71-22.17-22.1v-53.22c11.55-1.61,20.73-10.8,22.34-22.35h152.77Z"/>
  <path class="b" d="M135.69,210.8h.03c25.21,0,45.72-20.51,45.74-45.71,0-12.22-4.74-23.71-13.38-32.35-8.63-8.64-20.12-13.41-32.31-13.42h-.29c-25.14.05-45.55,20.55-45.5,45.71-.02,25.22,20.49,45.75,45.71,45.77ZM102.03,164.78c.13-18.44,15.23-33.44,33.66-33.44h.24c18.56.13,33.56,15.34,33.43,33.9-.13,18.44-15.23,33.44-33.66,33.44h-.24c-18.56-.13-33.56-15.34-33.43-33.9Z"/>
  <path class="b" d="M129.63,169.93c2.06.69,4.2,1.12,6.44,1.27,1.63.05,2.94,1.24,3.18,2.79-.45.62-.97,1.18-1.55,1.69-1.17.79-2.73.79-3.95-.04-.38-.24-.77-.56-1.17-.9-.37-.3-.75-.62-1.17-.92-.08-.06-.15-.12-.23-.18-2.48-1.87-6-1.42-7.92.99-.13.13-.25.27-.38.42-.94,1.17-1.38,2.63-1.22,4.13.16,1.47.86,2.79,2,3.73.94.87,1.96,1.57,2.94,2.24.76.52,1.47,1.01,2.12,1.55l.1.08c.5.37.89.87,1.12,1.45,1.08,4.04,3.73,4.94,5.87,4.94.09,0,.18,0,.27,0,2.17-.07,4.92-1.07,5.78-5.38.11-.36.34-.67.65-.87,6.07-2.63,9.62-9,8.66-15.56l-.03-.14c-1.49-6.79-7.38-11.75-14.36-12.07-.89-.03-1.78-.16-2.64-.39l-.12-.03c-1.02-.21-1.73-1.11-1.71-2.13.04-1.06.79-1.97,1.83-2.19l.17-.04c1.59-.49,3.3-.15,4.58.93.21.18.44.34.69.49,2.65,1.62,6.12.82,7.8-1.78.12-.15.22-.3.32-.46,1.66-2.65.9-6.15-1.69-7.88-1.08-.91-2.3-1.64-3.61-2.18l-.26-.08c-.37-.09-.62-.44-.59-.82v-.13c0-.21,0-.41-.03-.61-.31-3.03-3-5.28-6.02-5.04-.06,0-.13,0-.19,0-3.05,0-5.55,2.47-5.58,5.47-.03.78-.07.93-1.26,1.55-3.44,1.58-6.14,4.52-7.41,8.09-1.27,3.55-1.08,7.38.54,10.79,1.62,3.41,4.46,5.98,8.04,7.26Z"/>
</svg>