<?xml version="1.0" encoding="UTF-8"?>
<svg id="a" data-name="Layer 1" xmlns="http://www.w3.org/2000/svg" xmlns:xlink="http://www.w3.org/1999/xlink" viewBox="0 0 300 300">
  <defs>
    <style>
      .f {
        fill: none;
      }

      .f, .g {
        stroke-width: 0px;
      }

      .g {
        fill: red;
      }

      .h {
        clip-path: url(#b);
      }
    </style>
    <clipPath id="b">
      <rect class="f" x="10.34" y="10.31" width="279.32" height="279.38"/>
    </clipPath>
  </defs>
  <g class="h">
    <g id="c" data-name="Group 180">
      <path id="d" data-name="Path 229" class="g" d="M54.06,204.33l-10.16-24.42c-4.08,0-8.41.06-12.7,0-11.05.43-20.36-8.18-20.79-19.23-.02-.55-.02-1.1,0-1.65-.08-6.22-.08-12.46.01-18.69-.23-10.95,8.47-20.01,19.42-20.24.21,0,.43,0,.64,0,4.53-.11,9.07,0,13.38,0l10.16-24.45c-2.86-2.65-6.35-5.57-9.49-8.89-7.95-7.64-8.21-20.27-.57-28.23.26-.27.52-.53.79-.78,4.3-4.5,8.69-8.89,13.23-13.21,7.85-7.94,20.65-8.01,28.59-.16.03.03.06.06.08.08,3.33,3.1,6.21,6.64,9.14,9.8,4.69-2.15,8.38-3.96,12.18-5.54s7.7-2.93,12.09-4.6v-12.93c-.53-10.97,7.93-20.29,18.9-20.82.62-.03,1.24-.03,1.86,0,6.24-.09,12.46-.11,18.69,0,11.04-.19,20.14,8.61,20.33,19.65,0,.32,0,.63,0,.95.09,4.33,0,8.67,0,12.86l24.56,10.25c2.54-2.81,5.42-6.35,8.7-9.5,7.5-7.98,20.05-8.36,28.02-.86.32.3.63.61.93.94,4.5,4.3,8.91,8.71,13.22,13.22,8.01,7.62,8.33,20.3.7,28.31-.23.24-.46.48-.7.7-2.98,3.15-6.24,6.06-9.24,8.89l10.04,24.19h12.39c11.07-.59,20.52,7.9,21.11,18.96.04.72.04,1.44,0,2.17.08,6.02.1,12.05,0,18.07.37,11.01-8.26,20.22-19.26,20.59-.35.01-.7.01-1.06,0-4.34.1-8.7,0-13.08,0l-9.94,23.76c2.6,2.68,5.63,5.74,8.61,8.89,8.31,7.42,9.04,20.18,1.61,28.49-.45.51-.93.99-1.44,1.45-4.03,4.19-8.15,8.29-12.33,12.34-7.26,8.3-19.87,9.15-28.17,1.89-.6-.52-1.17-1.08-1.7-1.68-2.98-2.88-5.65-6.07-8.56-9.22-4.5,2.02-8.37,3.87-12.34,5.52-3.97,1.65-7.7,2.93-11.96,4.55,0,4.41.06,8.74,0,13.05.42,10.99-8.14,20.24-19.13,20.66-.4.02-.79.02-1.19.01-6.43.14-12.87.14-19.32,0-11,.16-20.05-8.63-20.22-19.63,0-.17,0-.35,0-.52-.11-4.52,0-9.05,0-13.32l-24.6-10.17c-2.54,2.77-5.23,6.18-8.36,9.18-7.7,8.16-20.56,8.53-28.72.83-.28-.27-.56-.54-.83-.83-4.35-4.16-8.61-8.42-12.78-12.78-8.09-7.47-8.59-20.08-1.12-28.17.41-.44.83-.86,1.28-1.26,2.87-2.98,6.06-5.68,9.08-8.48M30.65,159.97h19.05c7.96,0,11.12,2.31,12.81,9.82,2.29,9.92,6.2,19.39,11.57,28.04,3.93,4.39,3.56,11.13-.83,15.06-.37.33-.76.64-1.17.91-4.47,4.55-9,9.04-12.46,12.51l13.46,15.24c4.6-4.77,8.89-9.31,13.25-13.7,5.66-5.64,8.89-5.52,16.04-2.02,8.68,4.34,17.63,8.1,26.81,11.25,8.62,2.88,10.85,4.86,10.87,13.97v18.29h19.25c.26-.44.45-.92.57-1.42,0-6.02,0-12.04.11-18.06.09-7.45,2.44-10.68,9.65-12.32,9.92-2.29,19.39-6.18,28.05-11.53,4.24-3.98,10.9-3.77,14.88.47.4.43.77.89,1.09,1.38,4.47,4.57,8.6,9.47,12.48,13.79l15.14-14.79c-4.57-4.48-9.22-8.89-13.72-13.47-4.69-3.34-5.78-9.85-2.44-14.54.24-.34.5-.66.78-.96,5.36-8.65,9.27-18.12,11.58-28.03,1.71-7.56,4.83-9.82,12.76-9.87h18.92v-19.96h-19.15c-7.62,0-10.83-2.37-12.45-9.49-2.34-10.12-6.33-19.78-11.8-28.61-3.8-4.32-3.38-10.9.94-14.7.31-.28.65-.53.99-.77,4.51-4.55,9.14-8.95,13.37-13.08l-14.13-14.74c-4.31,4.39-8.58,8.89-12.99,13.25-3.25,5.01-9.95,6.44-14.96,3.19-.55-.36-1.07-.76-1.54-1.21-8.48-5.25-17.76-9.08-27.47-11.33-7.62-1.74-9.97-4.83-10.03-12.7v-19.14h-19.48c-.17.53-.29,1.07-.37,1.61,0,5.82,0,11.63-.08,17.44-.06,7.87-2.54,10.36-9.91,12.88-9.2,3.07-18.19,6.74-26.91,10.98-8.28,4.1-11.04,4.29-17.55-2.15-4.37-4.32-8.7-8.66-12.7-12.7l-14.68,14.2c4.74,4.55,9.44,8.89,13.97,13.42,4.77,3.23,6.02,9.71,2.79,14.48-.23.34-.49.68-.76.99-5.51,8.81-9.53,18.47-11.87,28.6-1.6,7.15-4.88,9.5-12.38,9.56h-19.42l.05,19.96Z"/>
      <path id="e" data-name="Path 230" class="g" d="M150.05,90.17c33.04.03,59.8,26.84,59.77,59.88-.03,33.04-26.84,59.8-59.88,59.77-33.04-.03-59.8-26.84-59.77-59.88,0-.21,0-.43,0-.64.48-32.75,27.13-59.06,59.88-59.13M150.28,110.1c-22.03-.16-40.02,17.57-40.18,39.6-.16,22.03,17.57,40.02,39.6,40.18,21.99.16,39.96-17.5,40.18-39.49.22-22.05-17.48-40.1-39.53-40.32-.02,0-.04,0-.07,0"/>
    </g>
  </g>
</svg>