<?xml version="1.0" encoding="UTF-8"?>
<svg id="a" data-name="Layer 1" xmlns="http://www.w3.org/2000/svg" viewBox="0 0 300 300">
  <defs>
    <style>
      .b {
        fill: none;
      }

      .b, .c {
        stroke-width: 0px;
      }

      .c {
        fill: #303232;
      }
    </style>
  </defs>
  <rect class="b" x="34.1" y="17.43" width="242.85" height="242.66"/>
  <g>
    <path class="c" d="M162.95,245.79c-1.7-2.4-4.48-3.84-7.43-3.84-1.83,0-3.6.54-5.11,1.57-.36.19-.77.29-1.18.29-.45,0-.89-.12-1.27-.34l-.13-.08-.14-.06c-32.24-14.41-65.09-29-97.64-43.39l-.15-.07-.16-.05c-.39-.12-.64-.51-.58-.92l.03-.21v-.21c.04-37.58.05-75.17.05-112.76,31.37,13.88,63.15,28.03,94.46,42.04,1.8.9,3.82,1.38,5.84,1.38s3.92-.45,5.59-1.26c24.64-10.99,49.3-21.97,73.95-32.94l20.69-9.21v44.21c-.03,1.15,0,2.31.1,3.55.37,3.34,2.55,6.16,5.68,7.37,1.04.4,2.12.6,3.22.6,3.68,0,7.04-2.31,8.36-5.74l.04-.11.03-.11c.47-1.56.68-3.18.63-4.81,0-6.31,0-12.62,0-18.93,0-12.4-.02-25.21.08-37.81.42-5.08-2.61-9.75-7.42-11.45-35-15.45-70.41-31.19-105.23-46.78-1.78-.87-3.76-1.33-5.74-1.33s-3.96.46-5.74,1.33c-35.2,15.73-70.78,31.55-105.75,47.02-4.41,1.56-7.25,5.86-6.94,10.53.06,43.38.06,87.36,0,130.73-.28,4.55,2.49,8.75,6.78,10.28l15.81,7.01c28.54,12.65,58.06,25.73,86.92,38.89,2.62,1.48,5.59,2.26,8.6,2.26,3.5,0,6.88-1.03,9.78-2.98,5.15-3.26,6.91-7.92,4.67-12.52-.21-.41-.45-.81-.71-1.19ZM148.03,33.67c.44-.23.93-.34,1.42-.34s.99.12,1.42.34l.13.06c7.87,3.58,15.61,7.02,23.81,10.65,1.23.55,2.47,1.1,3.71,1.65-28.41,12.69-57.32,25.53-86.03,38.23-.29.13-.59.2-.91.2-.16,0-.32-.02-.47-.05-9.51-4.14-19.14-8.43-28.45-12.59l-.08-.04,25.35-11.34c19.89-8.79,40.07-17.77,59.96-26.7l.14-.07ZM236.47,71.8c-28.63,12.76-57.5,25.58-85.9,38.15-.33.15-.68.23-1.04.23-.21,0-.42-.03-.63-.08-11.38-4.96-22.9-10.09-34.05-15.05l-.87-.39c28.4-12.67,57.22-25.47,85.76-38.07.38-.18.79-.26,1.21-.26.24,0,.48.03.72.09,10.19,4.4,20.54,9.02,30.56,13.5l4.25,1.9Z"/>
    <path class="c" d="M216.09,135.55c-34.98.09-63.48,28.62-63.52,63.6-.05,35.12,28.48,63.72,63.6,63.77h.09c35.07,0,63.64-28.53,63.69-63.68-.04-35.12-28.65-63.69-63.85-63.69ZM216.22,150.81l.05,3c12.16.01,23.59,4.76,32.18,13.37,8.59,8.61,13.31,20.05,13.3,32.21-.03,25.08-20.45,45.48-45.58,45.48-25.08-.06-45.49-20.51-45.49-45.58.03-25.08,20.45-45.48,45.53-45.48v-3h0Z"/>
    <path class="c" d="M208.5,203.19c-2.09-2.15-4.06-4.19-6.09-6.22-.57-.77-1.25-1.44-2.03-2-1.99-1.42-4.42-1.99-6.83-1.58-2.41.4-4.52,1.72-5.95,3.71-2.88,4.03-2.02,9.63,1.9,12.61,3.4,3.43,6.82,6.84,10.24,10.25l2.68,2.67c2.69,2.68,5.24,4.02,7.78,4.02s5.09-1.34,7.78-4.03c9.11-9.11,18.22-18.22,27.33-27.33,2.84-2.83,4.26-5.7,4.23-8.52-.02-2.25-.99-4.34-2.8-6.07-2.4-2.29-7.44-5.1-14.27,1.75l-22.35,22.4c-.54-.56-1.08-1.12-1.62-1.67Z"/>
  </g>
</svg>