<?xml version="1.0" encoding="UTF-8"?>
<svg id="a" data-name="Layer 1" xmlns="http://www.w3.org/2000/svg" xmlns:xlink="http://www.w3.org/1999/xlink" viewBox="0 0 300 300">
  <defs>
    <style>
      .e {
        fill: none;
      }

      .e, .f {
        stroke-width: 0px;
      }

      .f {
        fill: #303232;
      }

      .g {
        clip-path: url(#b);
      }
    </style>
    <clipPath id="b">
      <rect class="e" x="12.87" y="6.8" width="277.73" height="286.66"/>
    </clipPath>
  </defs>
  <g class="g">
    <g id="c" data-name="Group 186">
      <path id="d" data-name="Path 238" class="f" d="M62.58,160.31c-9.42-2.41-18.16-6.93-25.57-13.23-19.91-15.8-28.59-41.88-22.11-66.45,5.22-24.86,24.66-44.28,49.52-49.48,10.83-2.74,22.19-2.5,32.89.69,1.32.52,2.82.02,3.55-1.19C124.21,2.56,165.91-1.3,194,22.04c3.13,2.6,6.01,5.48,8.61,8.61.75,1.2,2.25,1.7,3.57,1.18,35.51-9.38,71.89,11.81,81.26,47.31,9.03,34.19-10.28,69.46-43.94,80.28-1.72.22-2.93,1.79-2.71,3.51,0,.05.01.1.02.14.07,40.06.07,80.13,0,120.19,0,7.46-2.71,10.17-10.17,10.17H72.72c-7.44,0-10.17-2.72-10.17-10.17v-119.35l.04-3.61ZM212.71,46.58c.39,1.02.71,1.89,1.02,2.76,2.96,7.54,4.49,15.57,4.53,23.68.18,3.51-2.01,6.7-5.35,7.79-5.58,1.94-10.29-2.03-10.45-8.81-.69-28.03-23.97-50.2-52-49.51-27.27.67-49.14,22.76-49.52,50.03.38,4.43-2.9,8.34-7.34,8.72-.2.02-.39.03-.59.03-4.37,0-7.91-3.56-7.9-7.93,0-.38.03-.76.08-1.13.17-4.22.67-8.42,1.49-12.57.93-4.44,2.47-8.75,3.77-13.23-5.79-1.32-11.76-1.6-17.64-.83-27.82,3.59-47.47,29.05-43.88,56.87,2.64,20.45,17.38,37.28,37.31,42.59,9.33,2.45,19.16,2.25,28.38-.58,4.02-1.56,8.55.43,10.11,4.45.19.49.33.99.42,1.51.87,4.14-1.78,8.19-5.92,9.06-.06.01-.12.03-.19.04-6.73,1.54-13.56,2.55-20.51,3.83v73.44h24.68v-27.3c-.36-4.36,2.89-8.18,7.24-8.54,4.36-.36,8.18,2.89,8.54,7.24.04.46.04.93,0,1.39v27.21h24.83v-54.1c-.33-3.48,1.61-6.79,4.81-8.2,3.99-1.73,8.64.1,10.37,4.09.53,1.23.74,2.57.62,3.9v54.29h24.83v-27.29c-.36-4.36,2.88-8.18,7.24-8.54s8.18,2.88,8.54,7.24c.04.46.04.93,0,1.39v27.22h24.67v-74.3c-1.06.09-2.12.09-3.18,0-6.18-1.02-12.41-1.93-18.5-3.39-3.54-.94-5.82-4.39-5.29-8.02.18-3.42,2.67-6.27,6.03-6.91,2.06-.19,4.13.03,6.1.64,26.94,7.68,55.01-7.93,62.7-34.88,7.68-26.94-7.93-55.01-34.88-62.7-8.19-2.34-16.84-2.57-25.15-.68M78.62,277.45h146.23v-24.56H78.62v24.56Z"/>
    </g>
  </g>
</svg>