<?xml version="1.0" encoding="UTF-8"?>
<svg id="a" data-name="Layer 1" xmlns="http://www.w3.org/2000/svg" viewBox="0 0 300 300">
  <defs>
    <style>
      .g {
        fill: none;
      }

      .g, .h {
        stroke-width: 0px;
      }

      .h {
        fill: #303232;
      }
    </style>
  </defs>
  <g id="b" data-name="Group 178">
    <g id="c" data-name="Rectangle 761">
      <rect class="g" x="10.74" y="10.56" width="126.98" height="126.98" rx="25.4" ry="25.4"/>
      <path class="h" d="M112.32,137.54H36.13c-14.01,0-25.4-11.39-25.4-25.4V35.96c0-14.01,11.39-25.4,25.4-25.4h76.19c14.01,0,25.4,11.39,25.4,25.4v76.19c0,14.01-11.39,25.4-25.4,25.4ZM36.13,35.96h-.02l.02,76.19h76.19V35.96H36.13Z"/>
    </g>
    <g id="d" data-name="Rectangle 764">
      <rect class="g" x="10.74" y="162.94" width="126.98" height="126.98" rx="25.4" ry="25.4"/>
      <path class="h" d="M112.32,289.93H36.13c-14.01,0-25.4-11.4-25.4-25.4v-76.19c0-14,11.39-25.4,25.4-25.4h76.19c14.01,0,25.4,11.4,25.4,25.4v76.19c0,14-11.39,25.4-25.4,25.4ZM36.13,188.34h-.02l.02,76.19h76.19v-76.19H36.13Z"/>
    </g>
    <g id="e" data-name="Rectangle 762">
      <rect class="g" x="163.12" y="10.56" width="126.98" height="126.98" rx="25.4" ry="25.4"/>
      <path class="h" d="M264.71,137.54h-76.19c-14,0-25.4-11.39-25.4-25.4V35.96c0-14.01,11.4-25.4,25.4-25.4h76.19c14,0,25.4,11.39,25.4,25.4v76.19c0,14.01-11.4,25.4-25.4,25.4ZM188.52,35.96h-.01v76.19h76.2V35.96h-76.19Z"/>
    </g>
    <g id="f" data-name="Rectangle 763">
      <rect class="g" x="163.12" y="162.94" width="126.98" height="126.98" rx="25.4" ry="25.4"/>
      <path class="h" d="M264.71,289.93h-76.19c-14,0-25.4-11.4-25.4-25.4v-76.19c0-14,11.4-25.4,25.4-25.4h76.19c14,0,25.4,11.4,25.4,25.4v76.19c0,14-11.4,25.4-25.4,25.4ZM188.52,188.34h-.01v76.19h76.2v-76.19h-76.19Z"/>
    </g>
  </g>
</svg>