<?xml version="1.0" encoding="UTF-8"?>
<svg id="a" data-name="Layer 1" xmlns="http://www.w3.org/2000/svg" viewBox="0 0 300 300">
  <defs>
    <style>
      .f {
        fill: #303232;
        stroke-width: 0px;
      }
    </style>
  </defs>
  <g id="b" data-name="Group 308">
    <g id="c" data-name="Group 309">
      <path id="d" data-name="Path 346" class="f" d="M15.92,254.93l-10.85-3.66,24.26-84.96c-8.52-5.58-13.95-14.81-14.69-24.97-.73-7.25-1.6-14.53-2.39-21.74-1.91-17.2-3.74-34.41-5.76-51.59-1.85-10.52,5.17-20.55,15.68-22.41,10.35-1.71,20.14,5.29,21.85,15.64.07.43.13.87.17,1.3.73,4.76,1.42,9.53,2.09,14.3,2.57,17.98,5.13,35.96,7.67,53.96.18.85.4,1.69.66,2.52h3.99c13.11,0,26.22-.05,39.33,0,9.42-.64,17.87,5.75,19.83,14.99,1.85,7.99-1.85,16.23-9.05,20.17-2.14.91-3.4,3.15-3.05,5.45.08,24.86.05,49.72.05,74.58v4.39h-12.49v-81.46c-1.33-.11-2.41-.27-3.47-.27-15.46-.07-30.92-.05-46.38-.25-2.57-.03-2.66,1.47-3.14,3.14-6.13,21.49-12.26,42.99-18.4,64.49-1.55,5.45-2.96,10.94-4.43,16.41l-1.48-.04ZM71.59,158.52h8.9c6.3,0,12.63.07,18.91-.08,3.25.02,5.97-2.49,6.2-5.73.16-3.21-2.14-6.03-5.32-6.52-1.34-.22-2.69-.31-4.05-.27h-45.98c-4.98,0-6.85-1.69-7.69-6.6-.23-1.33-.43-2.66-.62-4.02-3.42-23.59-6.84-47.18-10.27-70.77-.7-4.82-3.42-7.14-7.21-6.6-3.79.54-5.95,3.56-5.44,8.24,2.71,24.68,5.4,49.35,8.23,74.02.3,10.47,9.04,18.72,19.51,18.41.37-.01.74-.03,1.1-.06,7.91.04,15.82,0,23.74,0"/>
      <path id="e" data-name="Path 348" class="f" d="M174.78,215.41V82.87h-4.47c-22.77,0-45.53,0-68.3,0-7.13,0-8.93-1.84-8.94-9.03,0-7.05-.04-14.1,0-21.15.04-5.11,2.32-7.39,7.47-7.64.86-.04,1.73,0,2.6,0h181.51c8.64,0,10.27,1.64,10.27,10.15v17.07c0,9.24-1.33,10.64-10.41,10.64h-71.43v132.32c1.16.07,2.35.18,3.53.19,4.95,0,9.9-.08,14.85.07,3.32-.29,6.24,2.17,6.53,5.49.03.34.03.68,0,1.01.12,8.16.12,16.33,0,24.49.27,3.39-2.25,6.36-5.64,6.63-.14.01-.27.02-.41.02-1.1.11-2.22.15-3.32.11h-69.41c-7.47,0-9.46-1.99-9.47-9.46,0-6.65-.04-13.36,0-20.04.05-6.12,2.21-8.28,8.25-8.33,5.53-.04,11.06,0,16.78,0M282.11,57.92H105.92v12.12h176.19v-12.12ZM199.99,83.19h-12.17v132.04h12.17V83.19ZM162.58,240.37h62.61v-12.12h-62.61v12.12Z"/>
    </g>
  </g>
</svg>