<?xml version="1.0" encoding="UTF-8"?>
<svg id="a" data-name="Layer 1" xmlns="http://www.w3.org/2000/svg" viewBox="0 0 300 300">
  <defs>
    <style>
      .h {
        fill: #303232;
        stroke-width: 0px;
      }
    </style>
  </defs>
  <g id="b" data-name="Group 173-2">
    <path class="h" d="M251.1,288.05c-.44,0-.89,0-1.33-.03H50.06c-.22,0-1.18.02-1.44.02s-.54,0-.81-.02c-4.61-.02-8.36-3.59-8.61-8.18-.1-1.2-.13-2.42-.09-3.62V23.53c0-8.63,2.9-11.55,11.48-11.55,52.37,0,104.75-.01,157.13-.04.16,0,.33,0,.49,0,3.63,0,7.13,1.51,9.62,4.15,12.91,13.05,26.06,26.2,39.09,39.09,2.64,2.5,4.08,6.01,3.97,9.64-.04,70.51-.04,142.02,0,212.53.03,1.04-.03,2.08-.17,3.11-.49,4.18-4.01,7.43-8.23,7.57-.4.02-.89.03-1.38.03ZM243.1,270.37V71.56h-32.09c-6.1,0-9.57-3.39-9.77-9.54V29.66H56.82v240.71h186.28ZM229.92,53.89l-10.92-10.96v10.96h10.92Z"/>
    <path id="c" data-name="Path 216" class="h" d="M44.11,150.04V23.53c0-5.85.71-6.55,6.48-6.55,52.41,0,104.82-.01,157.23-.04,2.42-.11,4.76.84,6.41,2.61,13.01,13.14,26.08,26.21,39.22,39.22,1.64,1.53,2.53,3.71,2.44,5.95-.04,70.9-.04,141.79,0,212.69.02.81-.02,1.61-.13,2.41-.19,1.77-1.65,3.14-3.44,3.2-.81.04-1.61.04-2.42,0H50.06c-.74,0-1.44.04-2.15,0-1.99.04-3.64-1.52-3.72-3.51-.09-1.07-.12-2.14-.08-3.21v-126.27M206.24,24.66H51.82v250.71h196.28V66.56h-37.09c-3.45,0-4.66-1.24-4.77-4.7V24.66ZM214,30.83v28.05h27.96l-27.96-28.05"/>
    <path class="h" d="M227.05,251.98c-.3,0-.59,0-.88-.02h-59.13v-7.54s0,7.53,0,7.53h-93.3c-1.15.05-2.32,0-3.46-.15l-.25-.04c-4.36-.8-7.37-4.7-7.07-9.1.2-4.21,3.35-7.63,7.56-8.14.99-.11,1.93-.14,2.86-.1h153.25c.78-.03,1.58-.01,2.37.05,4.31.26,7.84,3.89,7.99,8.29.27,4.6-3.21,8.68-7.82,9.12-.7.07-1.41.1-2.11.1ZM228.25,244.45s.03,0,.05,0c-.02,0-.03,0-.05,0Z"/>
    <path id="d" data-name="Path 218" class="h" d="M167.03,246.96h-93.43c-.9.05-1.8.01-2.69-.1-1.85-.34-3.13-2.02-2.98-3.89.06-1.78,1.4-3.25,3.17-3.47.71-.08,1.43-.1,2.15-.07h153.45c.63-.03,1.26-.01,1.88.04,1.88.11,3.36,1.65,3.39,3.53.15,1.98-1.32,3.72-3.3,3.91-.8.08-1.61.1-2.42.06h-59.23"/>
    <path class="h" d="M73.04,214.38c-.75,0-1.51-.03-2.26-.09l-.36-.04c-2.3-.36-4.33-1.59-5.7-3.47s-1.94-4.18-1.58-6.49c.5-3.25,2.76-5.92,5.89-6.95l.35-.1c1.19-.3,2.43-.44,3.66-.41h153.93c1.41-.01,2.8.17,4.15.58l.47.17c2.15.9,3.82,2.59,4.7,4.75s.87,4.53-.04,6.67c-1.11,2.63-3.43,4.56-6.23,5.15l-.5.08c-1.1.12-2.21.16-3.32.12H73.95c-.31.02-.61.02-.92.02Z"/>
    <path id="e" data-name="Path 219" class="h" d="M167.03,209.37h-93.17c-.9.03-1.79.01-2.69-.06-2.03-.31-3.42-2.22-3.11-4.25.21-1.38,1.18-2.53,2.51-2.96.78-.2,1.58-.28,2.39-.26h154.04c.89-.02,1.78.1,2.63.36,1.89.8,2.78,2.98,1.99,4.87-.47,1.12-1.47,1.94-2.66,2.2-.89.1-1.79.13-2.69.09h-59.26"/>
    <path class="h" d="M227.18,178.54c-.17,0-.35,0-.52,0H73.36c-1.29.04-2.56-.09-3.82-.36-4.23-1.01-6.99-4.9-6.58-9.12.25-4,3.26-7.29,7.25-7.87l.13-.02c1.28-.15,2.59-.21,3.89-.17h151.4c1.13-.03,2.28,0,3.41.1,4.49.28,7.95,3.96,7.97,8.45.15,4.38-3.08,8.22-7.43,8.82-.8.12-1.6.18-2.41.18Z"/>
    <path id="f" data-name="Path 220" class="h" d="M167.29,166h58.42c.99-.03,1.99,0,2.98.08,1.89.1,3.36,1.67,3.33,3.56.1,1.88-1.26,3.52-3.13,3.77-.71.11-1.43.15-2.14.12H73.29c-.89.03-1.79-.05-2.66-.25-1.74-.41-2.89-2.07-2.67-3.84.06-1.68,1.31-3.07,2.98-3.31,1.07-.13,2.15-.17,3.22-.13h93.14"/>
  </g>
  <path id="g" data-name="Path 217" class="h" d="M126.92,115.13c-.22,5.6,1.94,7.85,7.36,7.85h58.7c.99-.03,1.99,0,2.98.07,2.24.19,3.99,2.02,4.08,4.26.12,2.36-1.67,4.39-4.03,4.56-2.68.2-5.38.09-8.07.13-.52,0-1.03.07-1.95.14,2.45,2.66,3.41,6.35,2.57,9.87-.57,2.19-1.91,4.11-3.78,5.4-3.81,2.69-8.98,2.34-12.39-.83-3.97-3.91-4.1-10.28-.28-14.34h-25.81c2.37,2.55,3.35,6.09,2.61,9.5-.49,2.12-1.69,4.01-3.39,5.35-3.66,2.89-8.83,2.83-12.43-.13-4.2-3.56-4.46-8.1-.8-14.82-1.16-.21-2.3-.33-3.39-.63-6.27-1.69-10.76-7.19-11.16-13.68-2.05-18.27-4.09-36.54-6.11-54.81-.06-.54-.16-1.06-.24-1.6-.74-5.07-1.89-6.18-6.99-6.7-2.52-.05-4.51-2.14-4.46-4.65s2.14-4.51,4.65-4.46c7.9-.36,14.74,5.43,15.69,13.28.12.87.21,1.75.35,2.98h67.35c1.52-.03,3.04.11,4.53.42,4.59.92,7.57,5.39,6.65,9.99-.01.05-.02.1-.03.16-1.83,8.93-3.85,17.86-5.8,26.79-.54,2.45-1.08,4.9-1.63,7.34-.96,5.26-5.71,8.95-11.04,8.59-16.87-.16-33.75-.05-50.6-.05l-3.14.02ZM172.05,69.64h-29.02l.94,7.23h27.26l.83-7.23M145.58,91.85h23.96l.74-7.01h-25.49l.74,7.01M168.6,99.71h-22.12l.85,7.74h20.42l.89-7.74M125.76,107.39h13.98l-.98-7.73h-13.81l.83,7.73M137.96,91.85l-.83-6.97h-13.91l.81,6.97h13.92ZM135.45,69.63h-13.99l.92,7.23h13.83l-.74-7.23M190.53,76.9c.39-1.73.8-3.37,1.11-5.03s-.07-2.37-1.83-2.43c-3.29-.1-6.59,0-10.06,0l-.82,7.49,11.6-.03ZM177.21,91.85h10.06l1.56-7.07h-10.84l-.82,7.07M185.5,99.68h-9.21l-.92,7.91c2,0,3.85-.07,5.71,0,1.59.21,3.05-.91,3.26-2.5,0,0,0-.02,0-.02.42-1.73.74-3.48,1.16-5.41M181.28,139.38c.2-1.22-.62-2.37-1.84-2.57s-2.37.62-2.57,1.84c-.04.27-.04.54.02.81.25,1.21,1.42,1.99,2.63,1.74.91-.18,1.61-.91,1.76-1.82M137.12,139.55c.12,1.19,1.13,2.09,2.33,2.08,1.2-.01,2.17-1,2.16-2.2,0-.01,0-.02,0-.03,0-1.23-.99-2.24-2.22-2.24-.07,0-.13,0-.2,0-1.18.16-2.06,1.17-2.06,2.36"/>
</svg>