<?xml version="1.0" encoding="UTF-8"?>
<svg id="a" data-name="Layer 1" xmlns="http://www.w3.org/2000/svg" viewBox="0 0 300 300">
  <defs>
    <style>
      .b {
        fill: #303232;
        stroke-width: 0px;
      }
    </style>
  </defs>
  <path class="b" d="M274.58,147.43c4.82-4.03,7.89-10.08,7.89-16.84,0-12.11-9.85-21.96-21.96-21.96h-48.57c4.4-9.02,6.7-18.91,6.7-29.1,0-36.74-29.89-66.64-66.64-66.64s-66.64,29.89-66.64,66.64c0,10.2,2.3,20.09,6.7,29.1h-54.95c-12.11,0-21.96,9.85-21.96,21.96,0,6.76,3.07,12.81,7.89,16.84-4.85,4.59-7.89,11.08-7.89,18.26v89.36c0,13.87,11.28,25.15,25.15,25.15h217.01c13.87,0,25.15-11.28,25.15-25.15v-89.36c0-7.19-3.04-13.68-7.89-18.26ZM97.37,79.53c0-30.13,24.51-54.64,54.64-54.64s54.64,24.51,54.64,54.64c0,10.39-2.9,20.39-8.41,29.1h-41.1c.05-1.21.85-2.28,2.04-2.65,8.27-3.92,11.79-13.8,7.87-22.06-2.6-5.49-7.99-9.11-14.06-9.44-.95-.03-1.9-.17-2.82-.41-3.14-.89-5.06-4.05-4.4-7.25.53-3.02,3.15-5.22,6.22-5.22,3.67-.04,5.74,2.09,6.52,6.78v.15c.3,2.78,2.77,4.81,5.56,4.54,2.86-.37,4.91-2.93,4.63-5.8-.24-6.08-3.85-11.51-9.36-14.09-1.44-.43-2.37-1.81-2.23-3.3.07-3.74-1.96-5.92-5.11-5.92-2.82-.03-5.13,2.23-5.17,5.05,0,.28.02.56.06.84.18,1.49-.74,2.89-2.18,3.32-6.86,3.26-10.58,10.81-8.99,18.24,1.52,7.33,7.75,12.74,15.23,13.21,1.03.03,2.06.18,3.06.44,3.1.98,4.94,4.16,4.25,7.34-.56,3.11-3.37,5.31-6.53,5.11l.03-.07c-3.41-.2-5.47-2.35-6.12-6.41,0-.15-.01-.3-.03-.44-.33-2.85-2.9-4.89-5.74-4.58l-.29.05c-2.87.58-4.73,3.37-4.15,6.24,0,0,0,0,0,0,.4,5.94,4.02,11.18,9.43,13.65,1.21.38,2.03,1.46,2.09,2.69h-41.18c-5.51-8.72-8.41-18.72-8.41-29.1ZM37.12,140.54c-5.49,0-9.96-4.47-9.96-9.96s4.47-9.96,9.96-9.96h62.37s105.04,0,105.04,0h0s55.99,0,55.99,0c5.49,0,9.96,4.47,9.96,9.96s-4.47,9.96-9.96,9.96H37.12ZM270.47,255.05c0,7.25-5.9,13.15-13.15,13.15H40.31c-7.25,0-13.15-5.9-13.15-13.15v-89.36c0-7.25,5.9-13.15,13.15-13.15h217.01c7.25,0,13.15,5.9,13.15,13.15v89.36Z"/>
</svg>