<?xml version="1.0" encoding="UTF-8"?>
<svg id="a" data-name="Layer 1" xmlns="http://www.w3.org/2000/svg" xmlns:xlink="http://www.w3.org/1999/xlink" viewBox="0 0 300 300">
  <defs>
    <style>
      .f {
        fill: none;
      }

      .f, .g {
        stroke-width: 0px;
      }

      .g {
        fill: #303232;
      }

      .h {
        clip-path: url(#b);
      }
    </style>
    <clipPath id="b">
      <rect class="f" x="5.04" y="37.94" width="289.93" height="224.11"/>
    </clipPath>
  </defs>
  <g class="h">
    <g id="c" data-name="Group 176">
      <path id="d" data-name="Path 226" class="g" d="M5.04,217.22c.82-2.89,1.46-5.85,2.46-8.67,6.04-17.95,20.87-31.53,39.28-35.97,9.37-2.57,18.86-4.8,28.25-7.26,3.99-1.34,8.38.2,10.66,3.74,5.29,7.14,10.72,14.17,16.09,21.24.61.82,1.27,1.6,2.09,2.62,5.74-7.54,11.32-14.89,16.9-22.24,4.41-5.83,6.13-6.44,13.31-4.64,9.15,2.3,18.33,4.49,27.45,6.93,3.79,1.01,7.44,2.53,11.42,3.9v-27.8c-.25-4.74,3.39-8.79,8.13-9.05.43-.02.86-.01,1.28.03,28.74,0,57.48,0,86.22,0h17.02c4.73-.42,8.9,3.08,9.31,7.81.05.53.04,1.06,0,1.58v103.24c.44,4.72-3.02,8.9-7.74,9.34-.54.05-1.09.05-1.63,0H14.1c-3.74.16-7.25-1.81-9.07-5.09v-39.72M20.84,244.79h152.13c0-15.43,0-30.64-.07-45.86-.08-.99-.6-1.9-1.43-2.46-4.51-2.7-9.23-5.03-14.13-6.94-7.24-2.4-14.8-3.8-22.14-5.83-1.58-.64-3.39.02-4.2,1.52-6.64,8.84-13.35,17.63-20.14,26.36-1.08,1.41-2.49,2.53-4.1,3.28-3.86,1.55-8.28,0-10.31-3.64-6.7-8.79-13.38-17.61-20.03-26.45-.74-1.34-2.36-1.92-3.78-1.35-7.1,1.93-14.28,3.57-21.38,5.52-13.97,2.86-24.96,13.63-28.11,27.53-1.48,9.38-2.26,18.86-2.33,28.35M190.2,157.18v87.63h87.58v-87.55h-17.81v3.28c0,7.94.06,15.88,0,23.82.51,4.64-2.83,8.81-7.47,9.32-1.97.22-3.95-.26-5.6-1.36-3.73-1.82-7.38-3.81-11.17-5.53-1.07-.42-2.27-.42-3.34,0-3.87,1.75-7.61,3.78-11.43,5.62-3.98,2.45-9.18,1.21-11.63-2.77-.97-1.58-1.4-3.44-1.21-5.29-.04-8.04,0-16.07,0-24.11v-3.06l-17.93-.02ZM225.22,158.39v13.23c4.94-4.61,12.6-4.65,17.59-.09v-13.16l-17.59.02Z"/>
      <path id="e" data-name="Path 227" class="g" d="M161.11,95.34c-.05,31.64-25.75,57.25-57.39,57.2-31.64-.05-57.25-25.75-57.2-57.39.05-31.64,25.75-57.25,57.39-57.2.07,0,.14,0,.21,0,31.57.15,57.06,25.83,56.98,57.39M144.08,95.25c0-22.24-18.01-40.28-40.26-40.29-22.24,0-40.28,18.01-40.29,40.26,0,22.22,17.97,40.24,40.19,40.29,22.19.1,40.26-17.81,40.36-39.99,0-.1,0-.21,0-.31"/>
    </g>
  </g>
</svg>