<?xml version="1.0" encoding="UTF-8"?>
<svg id="a" data-name="Layer 1" xmlns="http://www.w3.org/2000/svg" viewBox="0 0 300 300">
  <defs>
    <style>
      .b {
        fill: #303232;
        stroke-width: 0px;
      }
    </style>
  </defs>
  <path class="b" d="M43.54,76.79c1.05,7.68,7.68,13.47,15.42,13.47.66,0,1.33-.04,1.99-.13h75.3s73.04,0,73.04,0c.31.02.63.03.94.03.29,0,.57,0,.86-.02,4.09-.23,7.85-2.04,10.58-5.09,2.72-3.04,4.09-6.95,3.88-11.02.03-11.32.03-22.8,0-34.12.03-.61.03-1.23-.01-1.83-.54-8.02-7.25-14.31-15.28-14.31-.32,0-.64.01-.97.03H59.76c-.31-.02-.62-.03-.93-.03-.38,0-.75.01-1.13.04-4.09.3-7.82,2.18-10.5,5.29-2.66,3.09-3.97,7.02-3.69,11.09v32.64c-.16,1.32-.15,2.65.03,3.96ZM208.82,36.68c3.27,0,3.84.57,3.84,3.83v32.87c0,3.27-.58,3.85-3.84,3.85h-72.29v-.02H60.8c-3.99,0-4.4-.41-4.4-4.4v-32.28c0-3.27.58-3.85,3.84-3.85h148.58Z"/>
  <path class="b" d="M100.95,119.01c-.11-8.3-6.96-15.06-15.26-15.06h-.16c-1.49-.02-2.98-.02-4.47-.02s-2.96,0-4.44.01c-1.48,0-2.97.01-4.47.01l-3.04.03c-.48,0-.97,0-1.45-.01-1.52-.01-3.04-.02-4.56-.02s-3.06.01-4.58.05c-8.23.15-14.8,6.71-14.95,14.95-.11,5.92-.11,12.12,0,18.4.04,8.29,6.82,15.08,15.11,15.12,4.49.05,9.04.07,13.53.07s9.02-.02,13.44-.07h.13c4.07-.01,7.88-1.61,10.75-4.5s4.44-6.71,4.42-10.74c.08-5.48.08-11.32,0-17.8,0-.14,0-.28,0-.42ZM72.25,139.63c-4.26,0-8.53-.01-12.79-.03h-.13s-.13.02-.13.02c-.1.01-.21.02-.32.02-.1,0-.19,0-.29-.02-1.36-.16-2.34-1.4-2.18-2.75v-.13s.01-.13.01-.13c-.05-5.53-.05-11.13,0-16.66v-.14s-.02-.14-.02-.14c-.02-.2-.03-.4,0-.6.15-1.25,1.2-2.2,2.46-2.2.1,0,.19,0,.29.02h.12s.13.01.13.01c1.42-.02,2.83-.02,4.24-.02s2.84,0,4.26.01c1.42,0,2.85,0,4.27,0h12.52c2.56,0,3.3.72,3.3,3.25.05,5.92.05,11.28,0,16.4v.14s.02.13.02.13c.03.2.03.41,0,.61-.15,1.25-1.2,2.19-2.46,2.19-.1,0-.2,0-.29-.02h-.12s-.12-.01-.12-.01c-4.26.02-8.52.03-12.79.03Z"/>
  <path class="b" d="M163.23,119.02c-.1-8.32-6.93-15.07-15.32-15.07-1.49-.02-2.98-.02-4.47-.02s-2.96,0-4.44.01c-1.48,0-2.97.01-4.47.01l-2.24.03c-.7,0-1.4,0-2.1,0-1.45,0-2.91,0-4.36,0s-2.92,0-4.31.02h-.6c-4.09.06-7.9,1.71-10.75,4.64s-4.38,6.8-4.32,10.83c-.06,5.82-.06,11.73,0,17.5,0,.12,0,.24,0,.35.06,8.35,6.9,15.14,15.25,15.14h.08c4.46.04,8.91.06,13.37.06s8.91-.02,13.31-.06h.14c8.38,0,15.22-6.82,15.23-15.17.1-6.02.1-12.13,0-18.11v-.13ZM150.29,136.32c-.02,2.52-.76,3.24-3.31,3.24-4.17.02-8.34.03-12.51.03s-8.34,0-12.51-.03c-2.51-.01-3.24-.75-3.24-3.32-.04-5.34-.04-10.76,0-16.11.02-2.52.76-3.25,3.3-3.25h12.52c1.39,0,6.96-.02,8.35-.02s2.77,0,4.15.02c2.52.03,3.25.77,3.25,3.32.04,5.34.04,10.76,0,16.11Z"/>
  <path class="b" d="M225.56,118.91c-.18-8.25-7.03-14.95-15.27-14.95h-.27c-1.46-.01-2.92-.02-4.38-.02s-2.91,0-4.36.01c-1.45,0-2.9,0-4.35,0l-1.54.03c-1,0-2-.01-3-.02-1.52,0-3.04-.02-4.56-.02s-3.05,0-4.56.04c-8.26.08-15.03,6.87-15.1,15.11-.09,5.77-.09,11.88,0,18.2.03,8.37,6.86,15.17,15.26,15.17h0c4.46.04,8.91.06,13.37.06s8.91-.02,13.31-.06h.45c8.4-.13,15.13-7.08,14.99-15.42.07-5.29.07-10.88,0-17.5,0-.21,0-.43,0-.64ZM212.65,120.1c.05,5.44.05,10.96,0,16.4v.14s.02.14.02.14c.03.24.03.48,0,.72-.19,1.23-1.27,2.16-2.51,2.16-.13,0-.26,0-.39-.03l-.15-.02h-13.82s-11.35,0-11.35,0c-2.62-.02-3.38-.74-3.38-3.21-.05-5.44-.05-10.96,0-16.4v-.16s-.02-.16-.02-.16c-.04-.26-.04-.52,0-.78.2-1.2,1.23-2.07,2.44-2.07.14,0,.28.01.42.04l.17.03h.17c4.22-.02,8.43-.03,12.65-.03s8.43.01,12.65.03h.14s.14-.02.14-.02c.12-.02.23-.02.35-.02.13,0,.26,0,.38.03,1.38.21,2.33,1.51,2.11,2.88l-.02.16v.16Z"/>
  <path class="b" d="M85.65,157.41h-.26c-4.41-.03-8.82-.05-13.22-.05s-8.82.02-13.17.05h-.39c-8.41.08-15.17,6.99-15.09,15.36-.06,5.25-.06,10.83,0,17.5,0,.2,0,.41,0,.61.15,8.29,7.01,15.03,15.29,15.03h.22c1.46.01,2.92.02,4.38.02s2.91,0,4.36,0c1.45,0,2.9,0,4.36,0s2.95,0,4.43.01c1.48,0,2.96.01,4.45.01s2.99,0,4.44-.03h.32c4.08-.03,7.9-1.66,10.76-4.57,2.86-2.91,4.42-6.76,4.38-10.8.07-5.27.07-11.02,0-17.49,0-.23,0-.47,0-.7-.17-8.24-7.01-14.95-15.25-14.95ZM88.03,190.18c.03.24.03.48,0,.72-.19,1.23-1.27,2.16-2.51,2.16-.13,0-.26,0-.39-.03l-.15-.02h-12.95l-2.45.04h-9.75c-2.63-.04-3.4-.77-3.4-3.25-.05-5.44-.05-10.96,0-16.4v-.15s-.02-.15-.02-.15c-.03-.24-.03-.49,0-.74.19-1.21,1.26-2.13,2.48-2.13.13,0,.26.01.4.03l.16.03h.16c4.22-.02,8.43-.03,12.65-.03s8.43.01,12.65.03c2.34.01,3.1.78,3.1,3.2.05,5.44.05,10.96,0,16.4v.14s.02.14.02.14Z"/>
  <path class="b" d="M147.92,157.43c-4.46-.04-8.91-.06-13.37-.06s-8.91.02-13.33.06h-.36c-4.07.06-7.88,1.7-10.72,4.63-2.84,2.92-4.37,6.78-4.31,10.8-.06,5.82-.06,11.73,0,17.51,0,.2,0,.4,0,.6.19,8.25,7.05,14.96,15.29,14.96h.29c1.43.01,2.86.02,4.29.02s2.85,0,4.27-.01c.25,0,4.25,0,4.25,0,1.51,0,3.02,0,4.53.02,1.52,0,3.03.01,4.55.01s3.05,0,4.64-.03c8.37,0,15.21-6.81,15.27-15.16.09-6.02.09-12.12,0-18.21-.05-8.35-6.88-15.14-15.3-15.14ZM119.18,192.03c-.4-.55-.57-1.22-.47-1.89l.02-.16v-.16c-.05-5.44-.05-10.96,0-16.4v-.16s-.02-.16-.02-.16c-.04-.26-.04-.52,0-.78.2-1.2,1.23-2.07,2.44-2.07.14,0,.28.01.42.03l.17.03h.17c4.22-.02,8.43-.03,12.65-.03s8.43,0,12.65.03h.14s.14-.02.14-.02c.12-.02.23-.02.35-.02.13,0,.26,0,.38.03,1.38.21,2.33,1.5,2.12,2.88l-.02.16v.16c.05,5.44.05,10.96,0,16.4v.15s.02.14.02.14c.03.24.03.48,0,.72-.19,1.23-1.26,2.17-2.51,2.17-.13,0-.25,0-.38-.03l-.15-.02h-12.95c-1.4,0-2.79,0-4.19.01-1.39,0-2.78.01-4.17.01s-2.76,0-4.15-.02h-.15s-.14.02-.14.02c-.11.02-.23.02-.34.02-.13,0-.25,0-.38-.03-.67-.1-1.26-.46-1.67-1Z"/>
  <path class="b" d="M100.89,225.81c-.16-8.24-7-14.95-15.25-14.95h-.25c-4.41-.03-8.82-.05-13.22-.05s-8.82.02-13.18.05h-.36c-8.41.08-15.19,6.98-15.11,15.35-.06,5.2-.06,10.78,0,17.5,0,.2,0,.39,0,.6.14,8.3,7,15.05,15.3,15.05h.2c1.46.01,2.92.02,4.38.02s2.91,0,4.36-.01c1.45,0,2.9,0,4.35,0h0c1.48,0,2.95,0,4.43.01,1.48,0,2.96.01,4.45.01s2.99,0,4.43-.03h.33c8.42-.07,15.22-6.98,15.15-15.36.08-5.92.08-11.93,0-17.82,0-.13,0-.25,0-.36ZM63.77,246.46c-1.35,0-2.71,0-4.05-.02-2.57-.03-3.31-.77-3.31-3.29-.04-5.35-.04-10.77,0-16.1.03-2.56.76-3.3,3.27-3.3,4.17-.02,8.34-.02,12.51-.02s8.34,0,12.5.02c2.57.03,3.31.76,3.31,3.28.04,5.34.04,10.76,0,16.1-.03,2.57-.77,3.31-3.27,3.31h-12.8c-1.36,0-6.8.02-8.16.02Z"/>
  <path class="b" d="M163.25,225.7c-.24-8.33-6.95-14.85-15.28-14.85-.15,0-.3,0-.38,0-4.36-.03-8.73-.04-13.09-.04s-8.72.01-13.02.04h-.38s-.3,0-.3,0c-8.42.16-15.13,7.15-14.97,15.5-.06,5.82-.06,11.73,0,17.52v.29c.06,8.37,6.92,15.19,15.35,15.19,1.49.02,2.98.03,4.47.03s2.96,0,4.44-.01c1.12,0,2.24,0,3.37-.01v.02h1.11c1.45,0,2.9,0,4.35.01,1.45,0,2.91.01,4.36.01s2.92,0,4.31-.02h.35s.29,0,.29,0c8.43-.15,15.16-7.14,15.01-15.51.05-5.01.05-10.5,0-17.2,0-.32.01-.64,0-.96ZM128.88,246.51c-.87,0-1.73,0-2.6,0-1.38,0-2.77,0-4.15-.02-2.57-.03-3.31-.76-3.31-3.28-.04-5.35-.04-10.77,0-16.12,0-2.55.72-3.29,3.24-3.29,4.17-.02,8.34-.02,12.51-.02s8.34,0,12.52.02c2.55,0,3.29.72,3.29,3.24.04,5.34.04,10.76,0,16.1-.03,2.57-.76,3.32-3.27,3.32h-12.52l-5.72.03h.02Z"/>
  <path class="b" d="M243.35,199.75v-57.49l.03-.04V40.91c.06-1.15.06-2.31,0-3.46-.91-17.67-15.46-31.51-33.14-31.51-.55,0-1.12.01-1.68.04H60.41c-.52-.02-1.05-.03-1.57-.03-.48,0-.96.01-1.44.03-18.28.79-32.51,16.31-31.72,34.5v202.25c-.03.8-.03,1.62,0,2.42.61,17.96,15.16,32.02,33.12,32.02.38,0,.77,0,1.08-.02,24.9.02,49.81.04,74.71.04,22.57,0,45.13-.01,67.69-.03,8.79,11.35,22.54,18.67,38.01,18.68,26.56.02,48.11-21.5,48.13-48.07.02-25.55-19.9-46.45-45.06-48.02ZM60.48,264.26h-.07c-.49.04-.98.06-1.47.06s-.98-.02-1.47-.05c-5.44-.39-10.4-2.88-13.96-7.01-3.57-4.12-5.31-9.39-4.92-14.83v-.07s0-98.81,0-98.81h0V40.92c-.1-1.16-.1-2.34,0-3.51.94-10.61,9.67-18.61,20.31-18.61.61,0,1.22.03,1.83.08h.09s147.62,0,147.62,0h.08c.54-.05,1.08-.07,1.62-.07s1.08.02,1.61.06c5.44.43,10.38,2.95,13.92,7.1,3.54,4.15,5.25,9.42,4.82,14.86v.08s0,159.7,0,159.7c-1.67.34-3.3.77-4.9,1.28,0-9.49,0-18.97-.02-28.39.03-.61.03-1.22-.01-1.84-.54-8.02-7.25-14.31-15.28-14.31-.32,0-.64.01-.97.03h-24.31c-.48-.05-.97-.07-1.46-.07s-.95.02-1.42.07c-8.45.78-14.7,8.27-13.96,16.71v29.51h0s0,39.32,0,39.32c-.05.68-.05,1.37,0,2.04.51,8.08,7.25,14.4,15.34,14.4.31,0,.61,0,.92-.03,3.08,0,6.16.01,9.24.01.41,1.67.91,3.3,1.49,4.9H60.48ZM192.25,246.43h-7.52c-3.05-.01-3.66-.64-3.66-3.75v-68.73c0-3.04.63-3.66,3.75-3.66h24.2c3.04,0,3.66.64,3.66,3.75v34.28c-12.07,8.47-20.05,22.35-20.42,38.12ZM240.03,285.44c-20.86-.15-37.64-17.17-37.5-38.02.14-20.86,17.17-37.64,38.02-37.5,20.86.14,37.64,17.17,37.5,38.02-.15,20.86-17.17,37.64-38.02,37.5Z"/>
  <polygon class="b" points="247.42 247.4 263.85 225.54 250.31 225.54 240.79 238.6 231.36 225.54 217.77 225.54 234.14 247.34 217.27 269.94 230.85 269.94 240.78 256.25 250.71 269.94 264.29 269.94 247.42 247.4"/>
</svg>