<?xml version="1.0" encoding="UTF-8"?>
<svg id="a" data-name="Layer 1" xmlns="http://www.w3.org/2000/svg" viewBox="0 0 300 300">
  <defs>
    <style>
      .b {
        fill: none;
      }

      .b, .c {
        stroke-width: 0px;
      }

      .c {
        fill: #303232;
      }
    </style>
  </defs>
  <rect class="b" x="5.92" y="5.85" width="288.15" height="288.26"/>
  <g>
    <path class="c" d="M294.49,27.61c-1.3-7.13-5.48-13.56-11.44-17.63-4.76-3.4-10.37-5.19-16.22-5.19-1.95,0-3.9.21-5.8.61-5.88,1.18-11.14,4.12-15.21,8.47-19.35,19.31-39.09,39.06-58.68,58.67-.69.68-1.33,1.43-1.86,2.19-2.23,2.85-1.94,6.89.61,9.36.71.77,1.45,1.5,2.17,2.21.37.36.73.72,1.09,1.08l6.21,6.2-72.3,72.32c-.41-.38-.85-.79-1.28-1.22-1.69-1.69-3.38-3.38-5.07-5.08-3.51-3.53-7.14-7.18-10.78-10.7-1.8-1.76-3.82-3.3-6.01-4.6-4.16-2.3-8.86-3.52-13.6-3.52-7.34,0-14.28,2.81-19.53,7.89-2.98,2.79-5.98,5.56-8.98,8.34-2.46,2.28-4.92,4.56-7.37,6.84-6.2,5.74-12.44,11.57-18.55,17.33-3.59,3.37-7.15,6.77-10.71,10.17l-4.67,4.46c-.25.24-.49.48-.73.67-7.3,5.3-11.36,13.84-10.88,22.8.02,6.49,2.53,12.62,7.05,17.28,16.93,17.21,34.2,34.48,51.34,51.34,4.86,4.7,11.25,7.29,18.01,7.29,1.97,0,3.95-.23,5.84-.67,6.19-1.23,11.82-4.59,15.82-9.41,3.41-3.79,7.04-7.83,10.67-11.76,5.39-5.83,10.85-11.71,16.24-17.45,6.97-7.44,13.96-14.86,20.93-22.25,2.65-2.63,4.72-5.71,6.15-9.13,4.73-10.6,2.2-23.05-6.25-30.95-3.31-3.34-6.65-6.67-9.98-10-1.79-1.79-3.59-3.58-5.4-5.4-.38-.36-.73-.73-1.03-1.04l72.29-72.36c.11.11.22.22.3.3.96.96,1.92,1.92,2.88,2.89,1.96,1.97,3.98,4.01,5.99,5.94,1.31,1.42,3.17,2.24,5.1,2.24,1.56,0,3.08-.53,4.27-1.47,1.03-.75,2.01-1.6,2.88-2.5,19.12-19.13,38.25-38.25,57.38-57.36,3.24-3.18,5.81-6.9,7.64-11.08,2.12-5.13,2.62-10.71,1.47-16.11ZM142.05,220.96c-.68,1.06-1.47,2.06-2.36,2.98-1.93,2.08-3.88,4.15-5.83,6.22-1.55,1.64-3.1,3.28-4.63,4.92-7.14,7.56-14.26,15.13-21.39,22.71l-3.68,3.93c-4.82,5.15-9.64,10.3-14.4,15.43-2.24,2.01-5.12,3.24-8.13,3.45-3.27-.33-6.32-1.63-8.77-3.7-16.59-16.59-33.18-33.19-49.75-49.78-4.74-4.87-4.65-12.71.17-17.45,5.49-4.97,10.93-10.17,16.19-15.21,3.19-3.06,6.39-6.11,9.62-9.14,5.72-5.36,11.52-10.76,17.22-16.03,3.39-3.16,7.42-6.86,11.54-10.46,2.37-2.17,5.44-3.36,8.65-3.36,3.54,0,6.83,1.41,9.31,4,.44.42.86.84,1.29,1.27,14.08,14.06,28.14,28.14,42.24,42.26,2.44,2.15,4.15,5.08,4.81,8.22.57,3.4-.18,6.85-2.11,9.73ZM221.7,97.83c-.13.13-.27.26-.4.39l-19.48-19.66c.23-.28.47-.55.7-.81,17.71-17.68,35.69-35.67,53.46-53.51,2.71-3.01,6.58-4.78,10.63-4.85h.33c6.23,0,11.59,4.23,13.05,10.31,1.35,5.23-.33,10.68-4.43,14.29-11.1,11.12-22.2,22.23-33.31,33.34l-19.25,19.25c-.42.42-.85.83-1.29,1.25Z"/>
    <path class="c" d="M89.89,182.16c2.3-2.93,1.94-7.2-.73-9.65-2.45-2.75-6.59-3.04-9.33-.73-1.14.79-2.21,1.68-3.18,2.66-12.03,12-24.26,24.23-36.36,36.38-1.03,1.06-1.97,2.21-2.79,3.41-1.62,2.21-1.65,5.19-.1,7.44,1.18,2.17,3.44,3.51,5.88,3.51.14,0,.29,0,.44-.01h0s.01,0,.02,0c2.71,0,5.26-1.3,6.85-3.49l37.54-37.57c.66-.59,1.26-1.26,1.75-1.94Z"/>
    <path class="c" d="M125.66,209.51c-3.11-1.7-7.02-.96-9.23,1.69-13.12,13.13-26.25,26.26-39.34,39.33-1.58,1.41-2.42,3.42-2.3,5.53-.1,1.45.25,2.92,1.01,4.17,1.33,2.18,3.66,3.38,6.04,3.38,1.24,0,2.5-.33,3.63-1.02,1.23-.71,2.35-1.58,3.33-2.59,12.37-12.33,24.89-24.85,37.21-37.22.99-1,1.86-2.12,2.58-3.3.15-.23.28-.48.4-.73.79-1.69.87-3.58.24-5.34-.64-1.75-1.92-3.15-3.55-3.91ZM75.79,256.01h0s0,0,0,0h0Z"/>
    <path class="c" d="M107.96,202.35c.27-.26.54-.53.77-.8.61-.7,1.07-1.5,1.38-2.37,1.32-3.78-.69-7.93-4.46-9.24-3.08-1.12-6.47-.14-8.48,2.45-12.82,12.84-25.64,25.67-38.42,38.46-.66.59-1.26,1.25-1.77,1.94-1.64,2.12-1.95,4.94-.81,7.36,1.21,2.55,3.7,4.24,6.51,4.41l.06-.94.14.95c2.41-.35,4.63-1.54,6.23-3.31,12.76-12.79,25.52-25.56,38.32-38.37.17-.19.35-.36.53-.54Z"/>
    <path class="c" d="M260.23,47.46v-.75s.13.71.13.71c1-.19,1.93-.56,2.78-1.11l.09-.07c2.39-1.95,4.58-4.15,6.57-6.63l.1-.15c.94-1.47,1.26-3.21.89-4.92-.36-1.69-1.36-3.13-2.8-4.08-2.69-2.16-6.5-2.07-9.09.22-1.62,1.44-3.17,2.99-4.59,4.59-2.05,2.16-2.46,5.37-1.03,7.94,1.34,2.61,4,4.24,6.94,4.24Z"/>
  </g>
</svg>