<?xml version="1.0" encoding="UTF-8"?>
<svg id="a" data-name="Layer 1" xmlns="http://www.w3.org/2000/svg" xmlns:xlink="http://www.w3.org/1999/xlink" viewBox="0 0 300 300">
  <defs>
    <style>
      .f {
        fill: none;
      }

      .f, .g, .h {
        stroke-width: 0px;
      }

      .g {
        fill: #303232;
      }

      .i {
        clip-path: url(#b);
      }

      .h {
        fill: #fff;
      }
    </style>
    <clipPath id="b">
      <rect class="f" x="192.76" y="47.8" width="70.86" height="70.87"/>
    </clipPath>
  </defs>
  <path class="g" d="M230.39,112.46c-30.98-15.43-62.49-31.18-93.62-46.8-1.45-.81-3.09-1.23-4.75-1.23s-3.3.43-4.72,1.22c-31.06,15.61-62.58,31.35-93.63,46.75-3.59,1.43-5.81,4.99-5.51,8.79.02,47.16.04,94.32.04,141.48,0,6.53,2.46,8.96,9.07,8.96h93.8v.02h95.71c6.43,0,8.93-2.49,8.93-8.89-.04-47.06-.02-94.67.04-141.41.33-3.86-1.85-7.44-5.38-8.88ZM179.21,209.37h-16.16v-40.71c.06-.52.06-1.05,0-1.57-.39-3.49-3.33-6.12-6.84-6.12-.24,0-.48.01-.73.04h-47.13c-.22-.02-.44-.03-.65-.03-.25,0-.49.01-.74.04-1.82.2-3.46,1.09-4.6,2.52-1.14,1.41-1.66,3.18-1.48,4.99v40.86h-1.57c-1.65,0-3.3,0-4.96,0-1.65,0-3.31-.01-4.96-.01s-3.27,0-4.91.02c-.28-.03-.56-.05-.84-.05-.3,0-.61.02-.92.06-3.83.5-6.54,4-6.07,7.83v40.32h-10.25v-118.99h131.11v119.03h-10.24v-40.06c0-5.54-2.56-8.13-8.07-8.17ZM173.35,223.27v34.28h-34.38v-34.28s34.38,0,34.38,0ZM149.14,174.83v34.38h-34.39v-34.38h34.39ZM124.94,223.27v34.34h-34.37v-34.34h34.37ZM131.98,79.03c.54,0,1.07.14,1.58.45,28.89,14.5,58.1,29.11,86.82,43.42l.05.03.05.02c.9.31,1.48,1.18,1.4,2.2-.03,43.76-.04,87.51-.04,131.27,0,.38-.02.76-.04,1.18h-10.29v-124.16c0-6.35-2.45-8.82-8.74-8.82H61.11c-6.16,0-8.68,2.51-8.68,8.66v124.38h-10.35v-1.5c.02-43.41,0-87.43-.05-130.92-.1-1.02.51-1.96,1.48-2.29l.05-.02.05-.03c28.92-14.4,58.12-29.01,86.84-43.43.46-.27.99-.42,1.53-.42Z"/>
  <path class="h" d="M228.17,34.82l.05,3c12.16.01,23.59,4.76,32.18,13.37,8.59,8.61,13.31,20.05,13.3,32.21-.03,25.08-20.45,45.48-45.58,45.48-25.08-.06-45.49-20.51-45.49-45.58.03-25.08,20.45-45.48,45.53-45.48v-3h0Z"/>
  <g class="i">
    <g id="c" data-name="Group 180">
      <path id="d" data-name="Path 229" class="g" d="M203.86,97.02l-2.58-6.19c-1.03,0-2.13.02-3.22,0-2.8.11-5.17-2.07-5.27-4.88,0-.14,0-.28,0-.42-.02-1.58-.02-3.16,0-4.74-.06-2.78,2.15-5.08,4.93-5.13.05,0,.11,0,.16,0,1.15-.03,2.3,0,3.4,0l2.58-6.2c-.72-.67-1.61-1.41-2.41-2.26-2.02-1.94-2.08-5.14-.15-7.16.06-.07.13-.13.2-.2,1.09-1.14,2.2-2.26,3.36-3.35,1.99-2.01,5.24-2.03,7.25-.04,0,0,.01.01.02.02.84.79,1.58,1.68,2.32,2.49,1.19-.54,2.13-1.01,3.09-1.4s1.95-.74,3.07-1.17v-3.28c-.13-2.78,2.01-5.15,4.8-5.28.16,0,.31,0,.47,0,1.58-.02,3.16-.03,4.74,0,2.8-.05,5.11,2.18,5.16,4.98,0,.08,0,.16,0,.24.02,1.1,0,2.2,0,3.26l6.23,2.6c.64-.71,1.38-1.61,2.21-2.41,1.9-2.02,5.09-2.12,7.11-.22.08.08.16.16.24.24,1.14,1.09,2.26,2.21,3.35,3.35,2.03,1.93,2.11,5.15.18,7.18-.06.06-.12.12-.18.18-.76.8-1.58,1.54-2.35,2.26l2.55,6.14h3.14c2.81-.15,5.2,2,5.35,4.81,0,.18,0,.37,0,.55.02,1.53.03,3.06,0,4.58.09,2.79-2.09,5.13-4.89,5.22-.09,0-.18,0-.27,0-1.1.03-2.21,0-3.32,0l-2.52,6.03c.66.68,1.43,1.46,2.18,2.26,2.11,1.88,2.29,5.12.41,7.23-.12.13-.24.25-.36.37-1.02,1.06-2.07,2.1-3.13,3.13-1.84,2.11-5.04,2.32-7.15.48-.15-.13-.3-.27-.43-.43-.76-.73-1.43-1.54-2.17-2.34-1.14.51-2.12.98-3.13,1.4s-1.95.74-3.03,1.15c0,1.12.02,2.22,0,3.31.11,2.79-2.07,5.13-4.85,5.24-.1,0-.2,0-.3,0-1.63.04-3.27.04-4.9,0-2.79.04-5.09-2.19-5.13-4.98,0-.04,0-.09,0-.13-.03-1.15,0-2.3,0-3.38l-6.24-2.58c-.64.7-1.33,1.57-2.12,2.33-1.95,2.07-5.22,2.16-7.29.21-.07-.07-.14-.14-.21-.21-1.1-1.05-2.18-2.13-3.24-3.24-2.05-1.89-2.18-5.09-.29-7.15.1-.11.21-.22.32-.32.73-.76,1.54-1.44,2.3-2.15M197.92,85.77h4.83c2.02,0,2.82.59,3.25,2.49.58,2.52,1.57,4.92,2.93,7.11,1,1.11.9,2.82-.21,3.82-.09.08-.19.16-.3.23-1.13,1.15-2.28,2.29-3.16,3.17l3.41,3.87c1.17-1.21,2.26-2.36,3.36-3.48,1.44-1.43,2.26-1.4,4.07-.51,2.2,1.1,4.47,2.05,6.8,2.85,2.19.73,2.75,1.23,2.76,3.54v4.64h4.88c.07-.11.11-.23.14-.36,0-1.53,0-3.05.03-4.58.02-1.89.62-2.71,2.45-3.12,2.52-.58,4.92-1.57,7.12-2.93,1.08-1.01,2.77-.96,3.77.12.1.11.2.23.28.35,1.13,1.16,2.18,2.4,3.17,3.5l3.84-3.75c-1.16-1.14-2.34-2.26-3.48-3.42-1.19-.85-1.47-2.5-.62-3.69.06-.09.13-.17.2-.24,1.36-2.19,2.35-4.6,2.94-7.11.43-1.92,1.22-2.49,3.24-2.5h4.8v-5.06h-4.86c-1.93,0-2.75-.6-3.16-2.41-.59-2.57-1.6-5.02-2.99-7.26-.96-1.1-.86-2.76.24-3.73.08-.07.16-.14.25-.2,1.14-1.15,2.32-2.27,3.39-3.32l-3.59-3.74c-1.09,1.11-2.18,2.26-3.3,3.36-.82,1.27-2.52,1.63-3.8.81-.14-.09-.27-.19-.39-.31-2.15-1.33-4.5-2.3-6.97-2.87-1.93-.44-2.53-1.22-2.55-3.22v-4.85h-4.94c-.04.13-.07.27-.09.41,0,1.48,0,2.95-.02,4.42-.02,2-.64,2.63-2.51,3.27-2.33.78-4.61,1.71-6.83,2.79-2.1,1.04-2.8,1.09-4.45-.54-1.11-1.1-2.21-2.2-3.22-3.22l-3.72,3.6c1.2,1.15,2.39,2.26,3.54,3.41,1.21.82,1.53,2.46.71,3.67-.06.09-.12.17-.19.25-1.4,2.23-2.42,4.69-3.01,7.25-.41,1.81-1.24,2.41-3.14,2.43h-4.93v5.06Z"/>
      <path id="e" data-name="Path 230" class="g" d="M228.21,68.06c8.38,0,15.17,6.81,15.16,15.19,0,8.38-6.81,15.17-15.19,15.16-8.38,0-15.17-6.81-15.16-15.19,0-.05,0-.11,0-.16.12-8.31,6.88-14.98,15.19-15M228.27,73.12c-5.59-.04-10.15,4.46-10.19,10.04-.04,5.59,4.46,10.15,10.04,10.19,5.58.04,10.14-4.44,10.19-10.02.06-5.59-4.43-10.17-10.03-10.23,0,0-.01,0-.02,0"/>
    </g>
  </g>
  <path class="g" d="M228.03,19.55c-34.98.09-63.48,28.62-63.52,63.6-.05,35.12,28.48,63.72,63.6,63.77h.09c35.07,0,63.64-28.53,63.69-63.68-.04-35.12-28.65-63.69-63.85-63.69ZM228.17,34.82l.05,3c12.16.01,23.59,4.76,32.18,13.37,8.59,8.61,13.31,20.05,13.3,32.21-.03,25.08-20.45,45.48-45.58,45.48-25.08-.06-45.49-20.51-45.49-45.58.03-25.08,20.45-45.48,45.53-45.48v-3h0Z"/>
</svg>