<?xml version="1.0" encoding="UTF-8"?>
<svg id="a" data-name="Layer 1" xmlns="http://www.w3.org/2000/svg" viewBox="0 0 300 300">
  <defs>
    <style>
      .f {
        fill: none;
      }

      .f, .g {
        stroke-width: 0px;
      }

      .g {
        fill: #303232;
      }
    </style>
  </defs>
  <g id="b" data-name="Group 179">
    <g id="c" data-name="Rectangle 761">
      <rect class="f" x="10.31" y="10.31" width="279.37" height="76.19" rx="25.4" ry="25.4"/>
      <path class="g" d="M264.29,86.51H35.71c-14,0-25.4-11.39-25.4-25.4v-25.4c0-14.01,11.4-25.4,25.4-25.4h228.58c14,0,25.4,11.39,25.4,25.4v25.4c0,14.01-11.4,25.4-25.4,25.4ZM35.71,35.71h-.01v25.4h228.59v-25.4H35.71Z"/>
    </g>
    <g id="d" data-name="Rectangle 764">
      <rect class="f" x="10.31" y="111.9" width="279.37" height="177.78" rx="25.4" ry="25.4"/>
      <path class="g" d="M264.29,289.69H35.71c-14,0-25.4-11.4-25.4-25.4v-126.99c0-14.01,11.4-25.4,25.4-25.4h228.58c14,0,25.4,11.39,25.4,25.4v126.99c0,14-11.4,25.4-25.4,25.4ZM35.71,137.3h-.01v126.99h228.59v-126.99H35.71Z"/>
    </g>
    <path id="e" data-name="Path 228" class="g" d="M149.68,225.2c-4.66-.27-7.45-3.2-8.34-8.75v-.61c-.45-3.89-3.97-6.69-7.87-6.24,0,0,0,0,0,0l-.39.06c-3.91.78-6.45,4.59-5.67,8.5,0,0,0,.01,0,.02.54,8.1,5.47,15.25,12.85,18.63,1.85.58,3.04,2.39,2.83,4.32,0,5.26,2.72,8.29,7.09,8.23s6.91-3.11,6.84-8.17c-.28-1.93.89-3.78,2.76-4.36,11.28-5.34,16.08-18.81,10.74-30.09-3.55-7.49-10.9-12.43-19.17-12.88-1.29-.05-2.56-.23-3.81-.56-4.29-1.21-6.91-5.53-6.01-9.89.72-4.12,4.29-7.12,8.47-7.12,5,0,7.8,2.86,8.89,9.24v.2c.38,3.8,3.77,6.58,7.57,6.2.02,0,.03,0,.05,0,3.91-.48,6.72-3.99,6.35-7.91h0c-.33-8.29-5.26-15.7-12.77-19.21-1.96-.58-3.23-2.46-3.03-4.5.1-5.08-2.67-8.08-6.92-8.08-3.85-.02-6.98,3.09-7,6.94,0,.36.03.72.08,1.08.26,2.04-1,3.96-2.97,4.53-9.35,4.45-14.42,14.75-12.25,24.88,2.06,10,10.57,17.38,20.76,18.01,1.41.04,2.81.25,4.18.61,4.22,1.35,6.73,5.68,5.79,10.01-.78,4.23-4.6,7.2-8.89,6.92"/>
  </g>
</svg>