<?xml version="1.0" encoding="UTF-8"?>
<svg id="a" data-name="Layer 1" xmlns="http://www.w3.org/2000/svg" viewBox="0 0 300 300">
  <defs>
    <style>
      .k {
        fill: red;
        stroke-width: 0px;
      }
    </style>
  </defs>
  <g id="b" data-name="Group 264">
    <g id="c" data-name="Group 6">
      <path id="d" data-name="Path 1" class="k" d="M199.01,89.59l-54.78-54.78c-3.52-3.53-3.52-9.24,0-12.76,3.52-3.52,9.24-3.52,12.76,0l54.78,54.78c3.52,3.53,3.52,9.24,0,12.76-3.52,3.52-9.24,3.52-12.76,0"/>
      <path id="e" data-name="Path 3" class="k" d="M88.23,76.83l54.78-54.78c3.52-3.53,9.24-3.53,12.76,0,3.53,3.52,3.53,9.24,0,12.76,0,0,0,0,0,0l-54.78,54.78c-3.53,3.52-9.24,3.52-12.76,0-3.52-3.52-3.52-9.24,0-12.76"/>
    </g>
  </g>
  <g id="f" data-name="Group 265">
    <g id="g" data-name="Group 6-2">
      <path id="h" data-name="Path 1-2" class="k" d="M100.99,208.82l54.78,54.78c3.52,3.53,3.52,9.24,0,12.76-3.52,3.52-9.24,3.52-12.76,0l-54.78-54.78c-3.52-3.53-3.52-9.24,0-12.76,3.52-3.52,9.24-3.52,12.76,0"/>
      <path id="i" data-name="Path 3-2" class="k" d="M211.77,221.58l-54.78,54.78c-3.52,3.53-9.24,3.53-12.76,0-3.53-3.52-3.53-9.24,0-12.76,0,0,0,0,0,0l54.78-54.78c3.53-3.52,9.24-3.52,12.76,0,3.52,3.52,3.52,9.24,0,12.76"/>
    </g>
  </g>
  <path id="j" data-name="Path 334" class="k" d="M176.2,118.45c.42,4.78-2.54,9.2-7.11,10.65-4.38,1.33-9.1-.53-11.4-4.48-.49-.95-.92-1.92-1.3-2.92-1.46-4.24-5.94-6.66-10.29-5.55-3.9.94-6.68,4.39-6.77,8.4.44,4.26,3.61,7.74,7.82,8.55,1.57.31,3.18.4,4.77.63,12.48,1.58,22.47,11.14,24.59,23.54,2.24,11.95-3.45,23.99-14.12,29.84-2.97,1.18-4.73,4.24-4.26,7.4.82,4.96-2,9.8-6.72,11.53-4.87,1.9-10.37-.51-12.27-5.39-.39-1.01-.61-2.08-.64-3.16.62-5.13-2.25-10.04-7.02-12.02-5.46-3.3-9.37-8.66-10.85-14.87-2.01-5.18.57-11,5.74-13.01.08-.03.15-.06.23-.09,5.11-1.87,10.77.75,12.64,5.87.07.18.13.37.19.56.96,4.05,4.55,6.92,8.71,6.96,4.32.05,8.02-3.07,8.72-7.33.74-4.28-1.88-8.43-6.07-9.61-2.95-.75-6.09-.84-9.05-1.58-12.04-2.99-20.95-13.15-22.33-25.48-.96-11.81,5.44-22.99,16.11-28.14,1.91-.68,3.05-2.63,2.73-4.62-.11-1.74-.07-3.49.13-5.23.58-4.84,4.6-8.54,9.47-8.72,4.66-.17,9.92,3.09,9.71,7.65-.25,6.45,3.42,12.4,9.29,15.08,5.19,3.6,8.59,9.24,9.36,15.51"/>
</svg>