<?xml version="1.0" encoding="UTF-8"?>
<svg id="a" data-name="Layer 1" xmlns="http://www.w3.org/2000/svg" xmlns:xlink="http://www.w3.org/1999/xlink" viewBox="0 0 300 300">
  <defs>
    <style>
      .f {
        fill: none;
      }

      .f, .g {
        stroke-width: 0px;
      }

      .g {
        fill: #303232;
      }

      .h {
        clip-path: url(#b);
      }
    </style>
    <clipPath id="b">
      <rect class="f" x="6.6" y="5.08" width="286.84" height="290.1"/>
    </clipPath>
  </defs>
  <g class="h">
    <g id="c" data-name="Group 162">
      <path id="d" data-name="Path 204" class="g" d="M292.34,100.31c-.45-.37-.89-.73-1.34-1.1-1.02-.81-2.07-1.73-3.24-2.54l-1.74-1.24c-11.05-7.88-22.47-16.01-33.78-23.93l-3.78-3v-24.29c0-4.41-1.14-6.49-4.18-7.59-2.99-1-6.27.17-7.95,2.83-4.18,4.66-8.44,9.21-12.79,13.94l-12.69-13.83c-1.26-2.07-3.51-3.32-5.93-3.3l-33.51-24.58c-11.87-8.7-27.98-8.8-39.95-.25l-35.63,25.45c-3-1.62-5.62-.54-9.11,3.24-3.97,4.36-8.01,8.7-12.17,13.15l-13.39-14.47c-1.67-2.28-4.65-3.17-7.3-2.19-2.77,1-4.53,3.74-4.27,6.68v26.92l-1.49,1.05c-6.79,4.77-13.67,9.64-20.32,14.36-5.76,4.08-11.52,8.16-17.29,12.23-2.5,1.63-3.98,4.44-3.89,7.43v172.22c-.28,8.26,5.31,15.56,13.35,17.45l.53.21h258.9l.39-.11c6.69-1.65,11.91-6.88,13.55-13.57l.11-.39V102.59c0-.89-.4-1.72-1.1-2.28M273.33,105.08l-24.85,20.67c0-12.77,0-25.55,0-38.32l24.85,17.65ZM135.44,28.39c9.6-6.86,22.53-6.78,32.04.2l24.88,18.25-6.01,6.54c-4.31-4.66-8.43-9.19-12.6-13.72-4.32-4.66-7.8-4.66-11.98-.12l-12.68,13.79c-4.38-4.7-8.35-9.13-12.67-13.73s-7.7-4.54-11.98.06l-12.49,13.52c-.25-.15-.5-.32-.72-.51l-3.88-4.21,28.09-20.08ZM68.92,66.35c1.89,3.12,5.96,4.11,9.07,2.21.9-.55,1.66-1.31,2.21-2.21,4.26-4.58,8.46-9.21,12.98-14.11l10.14,10.97c1.03,1.11,2.04,2.26,3.07,3.35,2.1,2.97,6.21,3.68,9.18,1.59.62-.43,1.15-.97,1.59-1.59,3.68-3.97,7.37-8.01,11.06-12.05.67-.73,1.23-1.62,1.99-2.57l13.12,14.21c2,3.15,6.18,4.07,9.33,2.07.81-.52,1.5-1.2,2.03-2,4.27-4.58,8.5-9.2,12.98-14.05,4.22,4.58,8.31,9.02,12.41,13.45,4.61,4.96,7.99,4.87,12.6-.17,3.95-4.33,7.93-8.66,12.17-13.26,1.78,1.91,3.47,3.68,5.15,5.53,2.6,2.83,5.18,5.73,7.8,8.49,1.9,3.13,5.98,4.12,9.1,2.22.88-.54,1.63-1.27,2.18-2.15,1.92-2.08,3.8-4.19,6.08-6.68v77.33c-16.01,13.27-32.26,26.77-47.96,39.89l-12.98,10.79-2.24,1.87c-1.87,1.57-3.81,3.2-5.73,4.73-4.57,3.78-10.29,5.89-16.22,5.98h0c-6-.07-11.79-2.25-16.34-6.16-13.51-11.12-27.17-22.51-40.39-33.53l-17.23-14.37-3.19-2.64c-2.76-2.28-5.61-4.63-8.32-7.02l-1.62-1.35V59.69c2.23,2.43,4.13,4.56,6.04,6.65M49.59,88.86v35.25l-22.84-19.02,22.84-16.22ZM22.01,120.97l90.22,75.11-90.22,75.11V120.97ZM35.48,279.82l88.56-73.73c7.42,5.84,16.52,9.13,25.96,9.4,9.47-.28,18.6-3.58,26.06-9.4l88.57,73.73H35.48ZM278.01,271.14l-90.15-75.04,90.14-75.07v150.11Z"/>
      <path id="e" data-name="Path 205" class="g" d="M148.7,161.72c-4.34-.25-6.95-2.99-7.78-8.15,0-.19-.01-.38-.04-.56-.42-3.62-3.68-6.22-7.3-5.82l-.37.06c-3.65.73-6.01,4.28-5.27,7.93h0c.5,7.55,5.1,14.21,11.98,17.36,1.74.54,2.85,2.25,2.64,4.06-.06,4.87,2.53,7.73,6.61,7.67,3.93-.06,6.43-2.9,6.38-7.61-.26-1.8.82-3.52,2.56-4.06,10.51-4.98,14.98-17.53,10.01-28.04-3.31-6.97-10.16-11.58-17.87-12-1.21-.04-2.41-.21-3.59-.52-3.99-1.13-6.43-5.15-5.6-9.21.68-3.83,4.01-6.63,7.9-6.64,4.66-.05,7.3,2.66,8.29,8.61v.19c.38,3.54,3.53,6.11,7.07,5.78,3.63-.47,6.24-3.73,5.89-7.37h0c-.31-7.72-4.9-14.63-11.9-17.9-1.82-.54-3.01-2.3-2.83-4.19.09-4.75-2.49-7.52-6.49-7.52-3.58-.04-6.52,2.83-6.56,6.41,0,.36.02.71.08,1.07.23,1.89-.94,3.68-2.77,4.22-8.71,4.15-13.44,13.74-11.42,23.17,1.93,9.32,9.86,16.2,19.35,16.78,1.31.04,2.62.23,3.89.56,3.94,1.25,6.28,5.29,5.4,9.33-.71,3.96-4.28,6.75-8.3,6.49"/>
    </g>
  </g>
</svg>