<?xml version="1.0" encoding="UTF-8"?>
<svg id="a" data-name="Layer 1" xmlns="http://www.w3.org/2000/svg" xmlns:xlink="http://www.w3.org/1999/xlink" viewBox="0 0 300 300">
  <defs>
    <style>
      .f {
        fill: none;
      }

      .f, .g {
        stroke-width: 0px;
      }

      .g {
        fill: #303232;
      }

      .h {
        clip-path: url(#b);
      }
    </style>
    <clipPath id="b">
      <rect class="f" y="5.08" width="289.9" height="290.1"/>
    </clipPath>
  </defs>
  <g class="h">
    <rect class="f" x="2" y="7.08" width="285.9" height="286.1"/>
    <g id="c" data-name="Group 183">
      <path class="g" d="M212.76,266.39c-4.22,0-7.83-3.16-8.4-7.35-.11-.79-.1-1.58.01-2.36l.02-.14v-81.49h-.04v-76.71c0-7.33,2.82-10.19,10.05-10.19h50.4l.15-.02c.41-.06.83-.09,1.25-.09,4.14,0,7.71,3.09,8.32,7.19.12.81.12,1.63,0,2.44l-.02.14v158.66l.02.14c.67,4.67-2.59,9.02-7.26,9.69-.4.06-.81.09-1.21.09-.35,0-.7-.02-1.05-.06h-.12s-50.83-.01-50.83-.01l-.13.02c-.38.05-.77.08-1.15.08ZM220.89,249.95h37.24V104.6h-37.24v145.35Z"/>
      <path id="d" data-name="Path 234" class="g" d="M229.02,37.92c-1.15.84-1.97,1.45-2.74,2.09-19.91,16.58-39.81,33.18-59.7,49.78-3.78,4.3-10.33,4.72-14.63.93-.62-.55-1.18-1.17-1.66-1.86-6.2-6.46-12.38-12.92-18.79-19.61l-19.46,16.13c-17.88,14.78-35.74,29.56-53.57,44.32-1.83,1.56-3.98,2.68-6.31,3.3-4.4.96-8.87-1.26-10.76-5.34-2.08-4.12-1.03-9.12,2.52-12.07,6.78-5.87,13.71-11.52,20.59-17.26,19.66-16.39,39.33-32.78,59-49.17,3.87-4.57,10.72-5.14,15.29-1.26.76.64,1.43,1.39,1.98,2.21,6.28,6.09,12.87,11.85,19.64,18.04l50.32-42.04-.2-.72c-3.72,0-7.46.1-11.18,0-5.62.22-10.35-4.15-10.58-9.77-.05-1.14.1-2.28.43-3.37,1.32-4.4,5.48-7.32,10.06-7.07,11.8-.05,23.6,0,35.4,0,2.19-.14,4.39-.11,6.58.09,5.13.74,8.85,5.24,8.62,10.42-.16,13.05-.33,26.11-.49,39.16.31,4.8-2.73,9.18-7.34,10.56-5.42,1.48-11.02-1.72-12.5-7.14-.26-.95-.38-1.93-.36-2.92-.15-4.85,0-9.69-.04-14.54,0-.84-.11-1.6-.19-2.86"/>
      <path class="g" d="M118.36,266.38c-4.35,0-8.04-3.26-8.58-7.58-.09-.71-.09-1.42,0-2.13v-.12s.01-50.27.01-50.27l.02-2v-51.83c0-7.38,2.98-10.4,10.3-10.4h50.36l.12-.02c.36-.04.71-.07,1.07-.07,4.27,0,7.9,3.2,8.43,7.45.08.68.09,1.37,0,2.05v.12s-.01,105.15-.01,105.15v.11c.26,2.28-.39,4.52-1.83,6.31-1.44,1.79-3.48,2.91-5.77,3.16-.31.03-.62.05-.94.05-.34,0-.69-.02-1.03-.06h-.12s-50.8-.01-50.8-.01l-.12.02c-.36.05-.73.07-1.1.07ZM126.22,249.76h37.55l-.05-91.28h-37.49v91.28Z"/>
      <path id="e" data-name="Path 236" class="g" d="M144.85,295.18H11.46c-5.54.74-10.63-3.15-11.37-8.68-.05-.39-.08-.79-.09-1.19-.2-4.95,3.32-9.27,8.21-10.06,1.46-.23,2.93-.32,4.4-.29h264.57c1.58-.04,3.16.07,4.71.33,5.42,1.22,8.82,6.61,7.6,12.03-.97,4.31-4.64,7.48-9.04,7.82-1.16.08-2.31.05-3.47.05h-132.13"/>
      <path class="g" d="M11.99,276.95c-1.18,0-2.33.09-3.47.27-3.87.63-6.68,4.07-6.52,8.01,0,.37.03.69.07,1.01.55,4.07,4.04,7.04,8.04,7.04.36,0,.72-.02,1.08-.07l.13-.02h133.52s132.13,0,132.13,0h.71c.24,0,.47,0,.7,0,.66,0,1.3,0,1.94-.05,3.53-.27,6.44-2.79,7.22-6.26.47-2.1.1-4.26-1.05-6.08-1.14-1.81-2.91-3.06-4.99-3.55-1.2-.2-2.43-.3-3.65-.3-.21,0-.41,0-.62,0H12.61c-.21,0-.42,0-.62,0Z"/>
      <path class="g" d="M50.42,266.33c-8.69,0-17.38-.02-26.08-.05h-.13c-.18.02-.36.02-.53.02-4.39,0-8.04-3.43-8.31-7.82-.03-.41-.02-.83.01-1.24v-.08s0-65.34,0-65.34v-.1c-.24-2.22.4-4.4,1.81-6.13,1.41-1.73,3.4-2.82,5.62-3.05.29-.03.58-.05.87-.05s.57.01.86.04h.1s51.75.01,51.75.01h.1c.29-.04.57-.05.85-.05,4.22,0,7.74,3.17,8.17,7.38.06.54.06,1.1,0,1.64v.1s0,.1,0,.1c.04,21.7.04,43.72,0,65.46v.19c.43,4.51-2.9,8.51-7.41,8.93-.25.02-.5.03-.76.03-.22,0-.45,0-.67-.03h-.09s-.09,0-.09,0c-8.69.03-17.39.05-26.08.05ZM31.88,249.92h37.18v-50.91H31.88v50.91Z"/>
    </g>
  </g>
</svg>