<?xml version="1.0" encoding="UTF-8"?>
<svg id="a" data-name="Layer 1" xmlns="http://www.w3.org/2000/svg" viewBox="0 0 300 300">
  <defs>
    <style>
      .b {
        fill: red;
        stroke-width: 0px;
      }
    </style>
  </defs>
  <path class="b" d="M58.53,267.97c-3.56,0-6.94-1.71-9.05-4.58-1.36-2.19-2.15-4.77-2.26-7.42-.2-10.56-.16-21.32-.13-31.73l.02-7.69c-.49-6.15,4.06-11.48,10.13-11.96.29-.02.58-.04.87-.04.22,0,.45,0,.67.02h.04c.35,0,.64-.02,1.05-.06.23-.02.49-.04.82-.06l.93-.06v-9.74c0-.93,0-1.87-.01-2.8-.01-1.8-.03-3.66.01-5.48.29-1.83-.92-3.59-2.74-3.98-25.23-8.04-43.24-30.26-45.88-56.62v-.06s-.02-.06-.02-.06c-.1-.42-.23-.84-.4-1.24v-11.61c.66-4.18,1.55-8.37,2.63-12.46,6.61-25.85,27.98-44.67,54.45-47.95,4.01-.6,7.95-.91,11.72-.91,22.72,0,41.4,10.73,55.5,31.89l.11.16c.82,1.24,1.75,2.65,4.15,2.65,14.77-.06,29.63-.06,42.22-.06h25.91c.31,0,.62-.02.98-.05.19-.01.39-.03.62-.04l.94-.06v-10.07h-43.27c-5.85,0-7.83-1.96-7.84-7.77v-29.07c-.26-1.61.13-3.22,1.1-4.53.96-1.31,2.38-2.17,3.99-2.42.31-.05.62-.07.93-.07s.65.03.96.08h.08s99.82.01,99.82.01c5.12,0,7.22,2.11,7.23,7.29v29.19c0,5.16-2.11,7.27-7.27,7.28h-43.84v10.06l.96.04c.29.01.58.03.87.05.61.04,1.21.07,1.83.07,2.29,0,4.57.04,6.85.08,2.29.04,4.58.08,6.87.08,3.16,0,5.78-.08,8.23-.24.62-.05,1.24-.08,1.85-.08,11.31,0,20.91,8.84,21.84,20.13.1,1.21.1,2.45,0,3.66-.4,21.35-.32,43-.24,63.94.03,8.81.07,17.62.07,26.42v4.27l3.83.2c5.97.17,10.65,4.97,10.67,10.92.1,13.72.1,27.62,0,41.34,0,5.94-4.65,10.78-10.58,11.02-.55.04-1.08.04-1.6.04H59.97s-.06,0-.06,0c-.46.06-.92.08-1.38.08ZM58.84,256.16h216.91v-39.86H58.84v39.86ZM73.3,204.38h188.01v-95.92c.39-2.46-.2-4.94-1.65-6.97-1.47-2.06-3.65-3.42-6.14-3.83-.51-.08-1.03-.13-1.55-.13-.48,0-.97.04-1.44.11h-106.75l.4,1.29c6.55,21.33,2.01,44.37-12.15,61.62-12.71,16.14-31.76,25.38-52.28,25.38-1.78,0-3.58-.07-5.36-.22l-1.08-.09v18.75ZM79.7,62.96c-30.68.02-55.62,24.99-55.6,55.67.02,30.66,24.98,55.61,55.64,55.61,14.89,0,28.86-5.81,39.37-16.32,10.5-10.52,16.28-24.49,16.27-39.35-.06-30.7-25.02-55.61-55.64-55.61h-.04ZM172.37,64.21h90.77v-20.43h-90.76v20.43Z"/>
  <path class="b" d="M174.2,140.27c-2.95,0-5.5-2.2-5.94-5.12-.09-.59-.09-1.19,0-1.79v-.07s.01-19.05.01-19.05v-.07c-.22-1.53.17-3.05,1.1-4.29.93-1.23,2.29-2.03,3.82-2.25.27-.04.53-.06.8-.06s.51.02.77.05h.07s33.83,0,33.83,0l.82.03h33.77c5.1,0,7.1,1.96,7.14,6.99.04,6.09.04,12.26,0,18.35-.04,5.03-2.15,7.17-7.07,7.18-11.34.02-22.69.02-34.03.02s-22.69,0-34.03-.02h-.15c-.3.06-.6.08-.9.08ZM180,128.51h58.72v-9.2h-58.72v9.2Z"/>
  <path class="b" d="M79.63,162.17c-1,0-2.01-.21-2.96-.62-1.81-.79-3.2-2.24-3.92-4.07-.31-.79-.48-1.62-.51-2.46v-.08s0-.08,0-.08c.37-3-1.33-5.9-4.12-7.05l-.07-.03-.07-.04c-3.86-2.34-6.69-6.19-7.75-10.57-1.51-3.98.48-8.45,4.46-10h0s.14-.06.14-.06c.86-.31,1.75-.46,2.61-.46,3.12,0,6.06,1.93,7.2,5.03.05.14.1.28.14.42.56,2.34,2.57,3.95,4.92,3.98h.06c2.37,0,4.44-1.75,4.82-4.1.41-2.4-1.04-4.69-3.37-5.35-.95-.25-1.94-.38-3-.53-1.01-.14-2.05-.28-3.07-.53-8.48-2.09-14.83-9.34-15.79-18.02-.68-8.33,3.9-16.35,11.41-19.96l.05-.02.05-.02c.83-.3,1.33-1.14,1.19-2.02-.09-1.32-.06-2.56.09-3.78.44-3.79,3.53-6.63,7.34-6.75.09,0,.19,0,.29,0,2.07,0,4.21.85,5.64,2.26,1.13,1.12,1.71,2.48,1.67,3.92-.15,3.96,2.08,7.58,5.68,9.22l.08.04.07.05c3.72,2.58,6.17,6.65,6.73,11.15l-1.43.17,1.46-.13c.32,3.71-1.93,7.09-5.48,8.21-.75.23-1.5.33-2.24.33-2.68,0-5.21-1.41-6.61-3.83-.37-.73-.68-1.43-.95-2.14-.69-1.99-2.57-3.27-4.58-3.27-.39,0-.78.05-1.17.15-2.16.53-3.72,2.44-3.8,4.65.28,2.42,2.06,4.35,4.46,4.82.62.12,1.25.19,1.91.27.42.05.84.09,1.25.15,8.88,1.13,15.89,7.84,17.41,16.68,1.59,8.49-2.43,16.99-10.02,21.15l-.05.03-.05.02c-1.57.63-2.49,2.24-2.25,3.91.62,3.79-1.56,7.52-5.19,8.85-.86.34-1.76.51-2.67.51Z"/>
</svg>