<?xml version="1.0" encoding="UTF-8"?>
<svg id="a" data-name="Layer 1" xmlns="http://www.w3.org/2000/svg" viewBox="0 0 300 300">
  <defs>
    <style>
      .b {
        fill: #303232;
        stroke-width: 0px;
      }
    </style>
  </defs>
  <path class="b" d="M275.92,81.71v-.23c-.09-23.78-19.51-43.13-43.29-43.13h-.16c-2.15,0-4.29,0-6.44.01-2.14,0-4.29.01-6.43.01s-4.29,0-6.43-.02h-.18c-.8,0-1.65.05-2.46.11-.8.05-1.62.1-2.38.1-1.51,0-2.51-.21-3.14-.67-.93-.69-1.29-2.7-1.64-4.64-.17-.97-.35-1.98-.6-2.84-2.64-10.87-11.43-19.34-22.35-21.56-9.92-2.43-20.13-3.67-30.35-3.67s-21.31,1.34-31.62,3.99c-9.87,2.3-17.77,9.78-20.6,19.47-.82,2.42-1.47,4.92-1.94,7.42-.36,1.91-.94,2.41-2.78,2.41h-.24c-3.37-.08-6.94-.12-11.23-.12-3.33,0-6.67.02-10,.04l-3.51.02c-.3,0-.59,0-.89,0-.39,0-.78,0-1.17.02-11.52.31-22.24,5.09-30.17,13.46-7.93,8.37-12.13,19.32-11.82,30.82v83.92h.04c-.06,27.69-.06,55.78,0,83.5-.03,3.38.29,6.78.96,10.09,4.04,20.06,21.82,34.61,42.27,34.61.36,0,.72,0,1.05-.01h111.35c5.83,0,11.66.02,17.49.03,5.84.02,11.67.03,17.51.03,6.55,0,12.28-.02,17.5-.07h.54c23.87-.1,43.21-19.61,43.11-43.48.08-56.29.08-113.36,0-169.63ZM110.23,57.43c2.04-7.82,3.9-14.88,5.85-22.16.88-3.84,3.95-6.8,7.87-7.56,8.51-2.09,17.27-3.14,26.03-3.14s17.52,1.06,26.09,3.16c3.88.7,6.99,3.63,7.92,7.49.87,3.22,1.71,6.44,2.55,9.67,1.07,4.08,2.17,8.31,3.31,12.46.31,1.09.14,1.39.1,1.43-.05.07-.33.3-1.63.3-22.71-.11-45.43-.22-68.16-.32h-10.15c.06-.46.14-.91.22-1.33ZM256.48,253c-.79,12.69-11.35,22.62-24.04,22.62-.5,0-1.01-.02-1.51-.05h-.06c-26.95.02-53.9.03-80.85.03s-53.91,0-80.94-.03c-.49.03-.99.05-1.48.05-.53,0-1.06-.02-1.59-.05-13.26-.88-23.34-12.38-22.46-25.71V83.49c-.08-1.11-.08-2.23,0-3.33.85-12.62,11.42-22.5,24.05-22.5.55,0,1.1.02,1.72.06h21.11c.01.32.03.62.04.93.05,1.26.09,2.44.29,3.61,1.46,9.43,9.44,16.28,18.98,16.28.25,0,.5,0,.71-.01h78.38c.48.03.95.05,1.43.05.38,0,.76-.01,1.14-.03,5.14-.3,9.86-2.59,13.28-6.44,3.42-3.85,5.14-8.8,4.83-13.85,0,0,0-.01,0-.02,3.89-.2,7.83-.31,11.72-.31,5.41,0,10.89.2,16.19.58,11.6,1.99,19.79,12.35,19.06,24.16v167.28c.07,1.02.07,2.05,0,3.07Z"/>
  <path class="b" d="M215.94,121.87h-30.1c-2.65,0-5.29,0-7.94-.01-7.59-.02-15.43-.03-23.15.09-2.35.07-4.65.74-6.71,1.97-3.53,2.38-4.92,6.82-3.38,10.75,1.47,4.3,5.68,7.02,10.11,6.62h61.17c.44.06.88.09,1.31.09.46,0,.93-.03,1.39-.1,2.59-.37,4.88-1.73,6.46-3.82s2.23-4.68,1.86-7.27c-.76-5.33-5.69-9.05-11.02-8.33Z"/>
  <path class="b" d="M217.09,182.43c-.32,0-.65.02-.98.05-10.2-.03-20.39-.04-30.58-.04s-20.4.01-30.62.04c-1.72,0-3.41.31-5.07.93-3.52,1.52-5.78,4.99-5.77,8.82.01,5.27,4.31,9.56,9.6,9.56h0c3.56.02,7.11.02,10.66.02s7.1,0,10.65-.01c3.3,0,6.6,0,9.89-.01v.03s30.88,0,30.88,0c.2,0,.4.01.6.01,1.19,0,2.38-.13,3.6-.39,4.49-1.27,7.43-5.57,6.99-10.25-.6-5-4.84-8.77-9.87-8.77Z"/>
  <path class="b" d="M85.88,163.63c.13.17.26.34.4.5,1.58,1.86,3.8,2.99,6.24,3.19.25.02.5.03.75.03,2.17,0,4.24-.76,5.89-2.16,9.77-7.66,19.25-15.38,27.23-21.91,2.74-2.14,4.02-5.72,3.27-9.07-.31-1.76-1.11-3.39-2.29-4.73-3.54-3.98-9.66-4.34-13.6-.84-4.33,3.42-8.71,6.96-12.95,10.39-1.95,1.58-3.9,3.16-5.87,4.75-.34-.43-.68-.86-1.02-1.29-1.33-1.69-2.58-3.29-3.96-4.8-3.29-3.8-8.84-4.43-12.91-1.48-4.29,3.11-5.24,9.14-2.12,13.43,3.5,4.76,7.2,9.48,10.97,13.99Z"/>
  <path class="b" d="M127.38,190.11c-3.5-3.99-9.6-4.38-13.55-.92-4.72,3.69-9.28,7.39-14.11,11.3-1.58,1.28-3.17,2.57-4.78,3.86-.36-.46-.72-.91-1.07-1.36-1.18-1.51-2.29-2.93-3.46-4.28-1.58-2.04-3.85-3.35-6.41-3.69-2.56-.33-5.1.35-7.14,1.93-2.04,1.57-3.35,3.85-3.69,6.41s.35,5.1,1.92,7.13c3.44,4.61,7.02,9.17,10.61,13.52.13.18.26.35.4.51,1.84,2.19,4.49,3.32,7.15,3.32,2.11,0,4.22-.71,5.94-2.16,9.04-7.08,17.95-14.32,27.01-21.71,2.89-2.18,4.21-5.87,3.38-9.36-.33-1.67-1.09-3.23-2.22-4.51Z"/>
  <path class="b" d="M147.41,169.17c1.77,1.56,4.01,2.4,6.3,2.4.2,0,.4,0,.61-.02l31.59-.02c.17.01.34.02.52.03.07,0,.14,0,.21,0,5.26,0,9.59-4.22,9.7-9.49,0-.26,0-.53,0-.79-.14-2.57-1.27-4.92-3.18-6.64s-4.38-2.58-6.88-2.45c-10.73-.14-21.59-.14-32.22,0-.32-.02-.64-.01-.96,0-2.54.15-4.86,1.28-6.55,3.18s-2.53,4.34-2.38,6.85c0,.11,0,.23.02.34.16,2.56,1.32,4.91,3.25,6.61Z"/>
  <path class="b" d="M186.21,212.86c-10.6-.07-21.35-.08-31.88,0-.43-.03-.88-.03-1.31,0-2.57.19-4.91,1.37-6.6,3.32s-2.51,4.44-2.32,7.01c.19,2.57,1.37,4.91,3.32,6.6,1.77,1.53,3.98,2.35,6.24,2.35.23,0,.46,0,.69-.03,3.48.03,6.96.02,10.45.01,1.74,0,3.49-.01,5.23-.01h15.87c.18.01.37.02.55.02.05,0,.1,0,.16,0,5.28,0,9.62-4.25,9.7-9.55,0-.28,0-.55-.02-.83-.34-5.25-4.87-9.25-10.08-8.9Z"/>
</svg>