<?xml version="1.0" encoding="UTF-8"?>
<svg id="a" data-name="Layer 1" xmlns="http://www.w3.org/2000/svg" viewBox="0 0 300 300">
  <defs>
    <style>
      .b {
        fill: red;
        stroke-width: 0px;
      }
    </style>
  </defs>
  <path class="b" d="M253.54,68.55c.11-2.6-.92-5.11-2.8-6.86-12.6-12.47-25.31-25.18-37.75-37.75-1.89-2.03-4.56-3.12-7.27-3-50.51.03-101.02.04-151.52.04-6.37,0-7.75,1.39-7.75,7.81v243.55c-.04,1.09,0,2.19.08,3.2.1,2.68,2.35,4.83,5.02,4.83.01,0,.02,0,.04,0,.47.02.94.02,1.42,0,.22,0,.45,0,.69,0h192.5c.42.02.83.03,1.25.03s.82-.01,1.21-.03c2.45-.08,4.5-1.99,4.75-4.37.12-.85.17-1.72.14-2.53-.04-68-.04-136.97,0-204.91ZM243.04,71.76v198.23H56.88V31.38h145.82v34.4c.13,4.14,2.01,5.98,6.1,5.98h34.24Z"/>
  <path class="b" d="M220.86,228.74c-.62-.05-1.26-.07-1.82-.04H81.1c-.72-.03-1.46,0-2.24.08-2.37.37-4.09,2.36-4.14,4.75-.22,2.48,1.43,4.75,3.87,5.29l.12.02c.9.13,1.81.16,2.63.12h84.03s53.23,0,53.23,0c.25.01.49.02.74.02.55,0,1.11-.03,1.69-.09,2.62-.36,4.47-2.69,4.25-5.31,0-2.52-1.89-4.59-4.42-4.84Z"/>
  <path class="b" d="M222.12,186.1c-.93-.31-1.92-.45-2.84-.43H80.83c-.87-.03-1.74.08-2.62.31-2.3.69-3.74,2.89-3.46,5.26.07,2.38,1.89,4.35,4.3,4.61.6.05,1.2.08,1.79.08.26,0,.51,0,.76-.01h137.02c.88.04,1.77,0,2.73-.11,2.23-.37,3.88-2.26,3.97-4.51.3-2.23-1.01-4.41-3.18-5.21Z"/>
  <path class="b" d="M81.85,142.62c-1.04-.04-2.08.01-3.19.15-2.22.4-3.86,2.31-3.92,4.56-.27,2.34,1.21,4.59,3.55,5.27.92.22,1.86.31,2.74.28h137.94c.15,0,.3,0,.45,0,.6,0,1.19-.05,1.79-.14,2.48-.43,4.21-2.63,4.06-5.13.06-2.52-1.84-4.67-4.36-4.89-.94-.09-1.91-.12-2.8-.09h-52.53s-83.75,0-83.75,0Z"/>
  <path class="b" d="M165.59,99.59h-83.75c-1.03-.04-2.08.01-3.19.15-2.22.4-3.86,2.31-3.92,4.56-.27,2.34,1.21,4.59,3.55,5.27.92.22,1.86.31,2.74.28h137.94c.15,0,.3,0,.45,0,.6,0,1.19-.05,1.79-.14,2.48-.43,4.21-2.63,4.06-5.13.06-2.52-1.84-4.67-4.36-4.89-.94-.09-1.91-.12-2.8-.09h-52.53Z"/>
</svg>