<?xml version="1.0" encoding="UTF-8"?>
<svg id="a" data-name="Layer 1" xmlns="http://www.w3.org/2000/svg" viewBox="0 0 300 300">
  <defs>
    <style>
      .e {
        fill: #303232;
        stroke-width: 0px;
      }
    </style>
  </defs>
  <g id="b" data-name="Group 303">
    <path class="e" d="M177.77,263.93c-1.71,0-3.37-.35-4.93-1.06-33.33-13.9-67.23-28-100.68-41.85-5.81-2.41-6.99-4.17-6.99-10.49v-14.88H25.43c-.16,0-.31,0-.47,0-1.18,0-2.35-.14-3.5-.41-3.49-.76-5.96-4.02-5.75-7.62-.05-3.49,2.36-6.52,5.79-7.25,1.22-.28,2.53-.43,3.84-.43h.34c6.48,0,13.02-.02,19.57-.02s13.1,0,19.65.02h.11v-10.49h-12.03c-.32,0-.63,0-.95,0-.34,0-.68.01-1.01.01-.66,0-1.21-.02-1.73-.06-4.28-.08-7.7-3.46-7.81-7.75.02-4.41,3.55-7.92,7.87-7.92.12,0,.23,0,.33,0,1.23-.03,2.47-.04,3.71-.04.91,0,1.82,0,2.73.01.9,0,1.79.01,2.69.01.48,0,.96,0,1.44,0h4.75v-10.52h-22.64c-7.28.01-16.88,0-26.5-.07h-.1c-2.45,0-4.8-.74-6.81-2.13l-.18-.13-.16-.15c-1.83-1.72-2.92-4.05-3.06-6.56v-.1s0-.1,0-.1c.02-3.52,2.65-6.46,6.13-6.89.97-.15,1.95-.23,2.93-.23.27,0,.54,0,.81.02h50.33v-33.72c0-6.26.73-7.35,6.49-9.66,33.48-13.5,66.94-27,100.39-40.51,1.68-.74,3.46-1.11,5.29-1.11s3.68.39,5.38,1.15c33.83,13.9,68.21,27.97,102.18,41.82l.13.05.13.07c1.27.66,2.48,1.45,3.59,2.34l1.13.9v127.63s-.98.89-.98.89c-1.73,1.57-3.64,2.94-5.68,4.08l-.15.08-.16.07c-33.4,13.95-67.27,28.05-100.69,41.9-1.57.72-3.31,1.1-5.03,1.1ZM185.77,140.32c0,.2,0,.45,0,.66v103.78c29.49-12.26,58.98-24.5,88.48-36.73l.19-.08.2-.05c.37-.1.6-.45.55-.83l-.03-.2v-.21c-.17-34.4-.3-69.18-.36-103.39-29.65,12.34-59.3,24.68-88.96,37.02-.02,0-.03.01-.05.02ZM80.81,196.9c.02,3.54.04,6.89-.07,10.29v.15s-.02.15-.02.15c-.01.11.06.22.17.24l.24.06.22.09c29.33,12.16,59.13,24.55,88.6,36.86,0-34.41.02-68.83.06-103.25v-.21l.03-.21c.07-.46-.22-.9-.67-1.02l-.19-.05-.18-.08c-27.81-11.46-56.07-23.18-83.99-34.82-1.34-.56-2.68-1.1-4.06-1.65v24.03h1.78c.43,0,.86,0,1.29,0,.45,0,.91,0,1.36,0,.7,0,1.39.01,2.09.05,4.29.06,7.73,3.53,7.76,7.78,0,.31-.01.61-.05.91-.54,4.01-3.93,6.98-7.9,6.98-.2,0-.4,0-.59-.02-.94.03-1.87.04-2.82.04s-1.95-.01-2.93-.02v10.46h41.8c5.19,0,8.75,3.07,8.87,7.64.11,4.52-3.39,7.83-8.53,8.06-.28.01-.57.02-.86.02-.26,0-1.23-.02-1.46-.02h-39.79v10.49h.14c1.53,0,3.05,0,4.58-.01,1.54,0,3.08-.01,4.62-.01,2.81,0,5.1.02,7.21.06,4.27,0,7.78,3.48,7.82,7.76.04,4.32-3.45,7.86-7.76,7.9-1.34.05-2.88.07-4.76.07-1.08,0-2.16,0-3.24-.01-1.07,0-2.13-.02-3.2-.02h-5.56c0,.44,0,.88,0,1.31ZM154.21,117.03c7.34,3.07,14.94,6.24,22.39,9.42l.09.04c.4.19.82.28,1.26.28s.9-.1,1.3-.3l.14-.06c23.84-10.04,47.92-20.11,71.55-29.95,3.66-1.54,7.33-3.09,11.17-4.71l-2.13-.86c-10.05-4.06-19.55-7.89-29.18-11.68-.13-.02-.26-.03-.39-.03-.34,0-.69.08-1,.23l-.13.06c-27.37,11.58-54.89,23.25-81.88,34.71,2.27.95,4.54,1.9,6.8,2.85ZM126.5,105.28c.22.06.45.09.68.09h0c.33,0,.66-.06.96-.19,10.99-4.57,22.13-9.3,32.91-13.87l9.17-3.88,39.62-16.75-3.27-1.32c-8.99-3.61-18.28-7.35-27.45-10.91-.32-.11-.75-.19-1.18-.19s-.83.07-1.23.2c-23.96,9.52-48.24,19.24-72.19,28.9l-10.8,4.33,1.14.48c10.36,4.33,21.07,8.8,31.64,13.11Z"/>
    <path id="c" data-name="Path 336" class="e" d="M226,218.65c.06,4.38-3.31,8.05-7.68,8.35-4.22-.45-7.48-3.9-7.7-8.14-.43-4.24,2.66-8.03,6.9-8.46,4.24-.43,8.03,2.66,8.46,6.9.05.45.05.9.02,1.35"/>
    <path id="d" data-name="Path 337" class="e" d="M190.27,225.73c0-4.38,3.47-7.98,7.85-8.13,4.22.47,7.45,3.99,7.55,8.24.35,4.25-2.81,7.97-7.06,8.32-4.25.35-7.97-2.81-8.32-7.06-.04-.45-.03-.91,0-1.36"/>
  </g>
</svg>