<?xml version="1.0" encoding="UTF-8"?>
<svg id="a" data-name="Layer 1" xmlns="http://www.w3.org/2000/svg" viewBox="0 0 300 300">
  <defs>
    <style>
      .b {
        fill: none;
      }

      .b, .c {
        stroke-width: 0px;
      }

      .c {
        fill: #303232;
      }
    </style>
  </defs>
  <path class="b" d="M111.88,29h76.25c12.37,0,22.42,10.04,22.42,22.42v76.25c0,12.37-10.04,22.42-22.42,22.42h-76.25c-12.37,0-22.42-10.04-22.42-22.42V51.42c0-12.37,10.04-22.42,22.42-22.42Z"/>
  <path class="c" d="M111.87,150.08c-12.36,0-22.42-10.06-22.42-22.42V51.42c0-12.36,10.06-22.42,22.42-22.42h76.25c12.36,0,22.42,10.06,22.42,22.42v76.25c0,12.36-10.06,22.42-22.42,22.42h-76.25ZM108.86,51.42l.02,79.25h82.25V48.42h-82.25l-.02,3Z"/>
  <rect class="b" x="28.92" y="149.91" width="121.08" height="121.08" rx="22.42" ry="22.42"/>
  <path class="c" d="M51.33,271c-12.36,0-22.42-10.06-22.42-22.42v-76.25c0-12.36,10.06-22.42,22.42-22.42h76.25c12.36,0,22.42,10.06,22.42,22.42v76.25c0,12.36-10.06,22.42-22.42,22.42H51.33ZM48.31,172.34l.02,79.25h82.25v-82.25H48.33l-.02,3Z"/>
  <path class="b" d="M172.42,149.91h76.25c12.37,0,22.42,10.04,22.42,22.42v76.25c0,12.37-10.04,22.42-22.42,22.42h-76.25c-12.37,0-22.42-10.04-22.42-22.42v-76.25c0-12.37,10.04-22.42,22.42-22.42Z"/>
  <path class="c" d="M172.42,271c-12.36,0-22.42-10.06-22.42-22.42v-76.25c0-12.36,10.06-22.42,22.42-22.42h76.25c12.36,0,22.42,10.06,22.42,22.42v76.25c0,12.36-10.06,22.42-22.42,22.42h-76.25ZM169.4,172.33v79.25h82.26v-82.25h-82.25v3Z"/>
</svg>