<?xml version="1.0" encoding="UTF-8"?>
<svg id="a" data-name="Layer 1" xmlns="http://www.w3.org/2000/svg" xmlns:xlink="http://www.w3.org/1999/xlink" viewBox="0 0 500 500">
  <defs>
    <style>
      .g {
        fill: none;
      }

      .g, .h {
        stroke-width: 0px;
      }

      .h {
        fill: #303232;
      }

      .i {
        clip-path: url(#b);
      }
    </style>
    <clipPath id="b">
      <rect class="g" x="67.62" y="20.45" width="364.7" height="459.54"/>
    </clipPath>
  </defs>
  <g class="i">
    <g id="c" data-name="Group 326">
      <path id="d" data-name="Path 363" class="h" d="M314.8,250.78v173.5c1.13,25.44-15.81,48.16-40.51,54.34-11.61,2.1-23.55,1.37-34.81-2.12-42.81-9.56-85.63-19.09-128.44-28.58-25.59-4.52-44.01-27.09-43.31-53.06-.17-96.52-.17-193.05,0-289.6-.62-25.72,17.54-48.07,42.85-52.71,45.87-10.16,91.73-20.36,137.58-30.6,28.36-7.49,57.42,9.43,64.91,37.78,1.32,4.99,1.9,10.15,1.73,15.31.12,58.57,0,117.15,0,175.7M279.52,250.44V78.65c.07-2.21.01-4.42-.17-6.62-.69-9.69-9.1-16.98-18.78-16.29-1.1.08-2.19.26-3.26.54-46.04,10.19-92.09,20.41-138.13,30.67-9.82.89-17.06,9.58-16.17,19.4.02.27.06.55.09.82,0,95.38,0,190.75,0,286.13-1.34,9.66,5.4,18.58,15.05,19.92.2.03.41.05.61.07,46.19,10.34,92.4,20.59,138.63,30.75,3.04.63,6.18.56,9.18-.21,8.73-2.4,14.29-10.94,12.95-19.9v-173.44"/>
      <path id="e" data-name="Path 364" class="h" d="M432.28,250.16c0,42.71.11,85.44,0,128.15,1.45,26.22-17.22,49.28-43.17,53.31-16.07,1.65-32.26,1.9-48.37.76-8.22-1.23-14.29-8.3-14.26-16.61-.19-8.01,5.04-15.14,12.73-17.36,2.5-.6,5.06-.89,7.62-.86,9.55-.1,19.11,0,28.66,0,15.27,0,21.48-6.16,21.5-21.28V119.99c-.1-9.31-7.65-16.82-16.96-16.85-11.75-.27-23.52.07-35.27-.17-9.08.27-16.87-6.39-18.03-15.4-1.16-8.14,3.56-15.98,11.29-18.76,1.89-.68,3.89-1.04,5.9-1.07,12.67-.06,25.36-.3,38.02.11,27.45.79,49.47,22.94,50.1,50.39.56,44,.15,88.01.15,132.01h.12"/>
      <path id="f" data-name="Path 365" class="h" d="M191.54,250.51c-.1-13.05,10.4-23.71,23.45-23.81,13.05-.1,23.71,10.4,23.81,23.45,0,13.15-10.64,23.81-23.79,23.85-12.95-.06-23.42-10.55-23.47-23.49"/>
    </g>
  </g>
</svg>