<?xml version="1.0" encoding="UTF-8"?>
<svg id="a" data-name="Layer 1" xmlns="http://www.w3.org/2000/svg" xmlns:xlink="http://www.w3.org/1999/xlink" viewBox="0 0 500 500">
  <defs>
    <style>
      .r {
        fill: none;
      }

      .r, .s {
        stroke-width: 0px;
      }

      .s {
        fill: #303232;
      }

      .t {
        clip-path: url(#n);
      }

      .u {
        clip-path: url(#e);
      }

      .v {
        clip-path: url(#b);
      }
    </style>
    <clipPath id="b">
      <rect class="r" x="-21.46" y="280.62" width="438.84" height="325.99"/>
    </clipPath>
    <clipPath id="e">
      <rect class="r" x="84.55" y="52.38" width="262.7" height="410.1"/>
    </clipPath>
    <clipPath id="n">
      <rect class="r" x="325.58" y="83.14" width="121.88" height="121.91"/>
    </clipPath>
  </defs>
  <g class="v">
    <g id="c" data-name="Mask Group 1">
      <g id="d" data-name="Group 106">
        <g class="u">
          <g id="f" data-name="Group 3">
            <path id="g" data-name="Path 4" class="s" d="M90.71,462.48c-4.2-1.99-6.67-6.43-6.16-11.05.08-129.34.08-258.67,0-388.01v-1.6c-.37-3.85,1.92-7.47,5.57-8.78,3.51-1.35,7.5-.18,9.73,2.85l17.74,19.17c5.43-5.88,10.75-11.61,16.02-17.37,6.47-7.06,10.68-7.07,17.18,0l15.2,16.5c.3.25.62.47.95.66l16.5-17.85c5.67-6.12,10.13-6.17,15.79-.09,5.65,6.08,11.01,11.92,16.73,18.13,5.74-6.27,11.28-12.22,16.75-18.17,5.47-5.94,10.12-5.99,15.79.16,5.67,6.16,10.98,11.96,16.64,18.12l16.8-18.27c2.62-4.29,8.22-5.65,12.51-3.04,1.24.76,2.28,1.8,3.04,3.04l16.79,18.26c5.74-6.27,11.38-12.27,16.9-18.41,2.22-3.52,6.55-5.07,10.49-3.76,4,1.47,5.5,4.2,5.5,10.03,0,129.47.03,258.94.08,388.41.4,4.6-2.05,8.97-6.17,11.05h-4.01c-2.28-1.54-4.45-3.24-6.48-5.09-5.5-5.69-10.8-11.6-16.3-17.55-2.34,2.51-4.36,4.81-6.51,6.98-5.19,5.25-10.43,10.44-15.65,15.66h-4.81c-2.28-1.99-4.73-3.84-6.81-6.02-5.14-5.39-10.13-10.95-15.38-16.66-5.35,5.81-10.42,11.47-15.71,16.93-2.23,2.06-4.58,3.98-7.05,5.76h-4.01c-2.32-1.74-4.54-3.61-6.65-5.6-5.32-5.55-10.43-11.28-15.77-17.08-4.43,4.8-8.38,9.32-12.54,13.59-3.15,3.2-6.62,6.07-9.94,9.09h-4.01c-2.18-1.49-4.25-3.13-6.19-4.91-5.54-5.74-10.92-11.69-16.48-17.73-2.87,3.12-5.39,6.04-8.1,8.78-4.66,4.7-9.45,9.28-14.18,13.9h-4.76l-22.41-22.39c-2.67,2.92-5.37,6.04-8.25,8.98-4.44,4.53-9.02,8.93-13.54,13.39h-4.81ZM329.63,431.23V83.43c-3,3.31-5.48,6.09-8.02,8.78-2.59,4.1-8.01,5.33-12.11,2.74-1.14-.72-2.1-1.69-2.8-2.84-3.46-3.76-6.86-7.52-10.29-11.22-2.21-2.41-4.45-4.78-6.81-7.31-5.6,6.11-10.86,11.8-16.07,17.55-6.12,6.7-10.56,6.77-16.64.23-5.43-5.84-10.82-11.71-16.4-17.77-5.91,6.41-11.5,12.54-17.13,18.57-2.68,4.14-8.21,5.32-12.34,2.64-1.09-.7-2.01-1.64-2.7-2.73l-17.32-18.81c-1,1.25-1.74,2.42-2.63,3.39-4.86,5.33-9.72,10.66-14.67,15.91-2.83,3.88-8.27,4.74-12.16,1.91-.74-.54-1.4-1.2-1.94-1.95-1.38-1.45-2.71-2.96-4.06-4.43l-13.4-14.49c-5.93,6.46-11.47,12.54-17.1,18.63-2.56,4.11-7.98,5.37-12.09,2.8-1.14-.71-2.1-1.67-2.8-2.8-2.51-2.76-5.02-5.55-7.99-8.78v348.06c3.44-3.76,6.27-7.07,9.33-10.21,2.62-3.13,7.2-3.73,10.53-1.38,1.29.94,2.47,2.03,3.51,3.25,5.5,5.94,10.98,11.92,16.66,18.11,5.54-5.99,10.78-11.66,16.02-17.34,6.49-7.06,10.71-7.07,17.16-.06,5.3,5.76,10.61,11.49,16.06,17.38,5.74-6.27,11.18-12.11,16.6-18,5.68-6.18,10.32-6.14,16.07.13,5.4,5.88,10.82,11.75,16.53,17.95.99-1.12,1.77-2.02,2.51-2.88,4.8-5.21,9.6-10.41,14.39-15.61,2.64-4.2,8.18-5.46,12.38-2.83,1.17.74,2.16,1.73,2.88,2.92,2.09,2.24,4.14,4.54,6.27,6.8,3.5,3.76,7.02,7.52,10.71,11.54,6.07-6.61,11.79-12.95,17.55-19.17,2.64-3.81,7.86-4.76,11.67-2.12.83.57,1.55,1.29,2.12,2.12,2.72,2.87,5.35,5.83,8.45,9.2"/>
            <path id="h" data-name="Path 5" class="s" d="M243.87,167.58c.47,4.82-2.97,9.15-7.77,9.77-4.69.47-8.86-2.95-9.33-7.63,0-.08-.01-.16-.02-.24-1.37-7.86-4.79-11.45-10.91-11.38-5.15,0-9.55,3.71-10.43,8.78-1.1,5.36,2.12,10.66,7.38,12.15,1.55.4,3.14.63,4.74.68,15.33.83,27.08,13.93,26.26,29.26-.55,10.19-6.65,19.27-15.87,23.63-2.29.72-3.72,2.99-3.39,5.37.08,6.27-3.22,9.97-8.43,10.03s-8.78-3.67-8.78-10.13c.25-2.38-1.21-4.6-3.49-5.32-9.1-4.14-15.2-12.94-15.87-22.92-.97-4.82,2.15-9.51,6.97-10.49.16-.03.32-.06.48-.08,4.82-.5,9.14,3,9.64,7.82.02.2.03.39.04.59,1.09,6.83,4.54,10.44,10.28,10.77,5.29.38,10.02-3.27,11.01-8.48,1.15-5.33-1.94-10.66-7.13-12.31-1.68-.44-3.4-.69-5.14-.74-12.58-.73-23.09-9.83-25.63-22.17-2.65-12.46,3.56-25.11,15.05-30.62,2.43-.7,3.98-3.06,3.67-5.57-.72-4.68,2.49-9.06,7.17-9.78.46-.07.93-.1,1.4-.1,5.23,0,8.65,3.76,8.53,9.93-.24,2.51,1.34,4.84,3.76,5.54,9.25,4.32,15.31,13.45,15.71,23.65"/>
            <path id="i" data-name="Path 6" class="s" d="M216.36,330.26h69.74c1.33-.04,2.67-.02,4,.08,4.66.4,8.11,4.5,7.7,9.16-.35,4.1-3.6,7.35-7.7,7.7-1.33.13-2.67.08-4,.08h-140.32c-7.75,0-11.62-2.76-11.74-8.31-.11-5.55,3.96-8.7,11.77-8.7h70.54"/>
            <path id="j" data-name="Path 7" class="s" d="M216.31,366.27h71.02c2.25-.06,4.48.41,6.51,1.38,3.23,1.69,4.81,5.43,3.76,8.91-.66,3.55-3.61,6.23-7.21,6.56-1.33.13-2.67.17-4.01.11h-143.63c-4.72.08-8.62-3.68-8.7-8.4,0-.05,0-.11,0-.16,0-4.65,3.79-8.42,8.44-8.41.11,0,.22,0,.33,0,14.71-.09,29.43,0,44.13,0h29.35"/>
            <path id="k" data-name="Path 8" class="s" d="M215.78,312.19c-12.29,0-24.57.1-36.85,0-4.63.39-8.7-3.06-9.08-7.69-.13-1.61.2-3.23.96-4.65,1.45-2.97,4.52-4.79,7.82-4.65h74.51c4.69-.22,8.67,3.4,8.89,8.09.22,4.69-3.4,8.67-8.09,8.89-.3.01-.61.01-.92,0-12.41.1-24.84,0-37.25,0"/>
          </g>
        </g>
      </g>
    </g>
  </g>
  <g id="l" data-name="Ellipse 1">
    <path class="s" d="M387.25,250.07c-56.81,0-103.04-46.22-103.04-103.04s46.22-103.04,103.04-103.04,103.04,46.22,103.04,103.04-46.22,103.04-103.04,103.04ZM387.25,62c-46.89,0-85.04,38.15-85.04,85.04s38.15,85.04,85.04,85.04,85.04-38.15,85.04-85.04-38.15-85.04-85.04-85.04Z"/>
  </g>
  <g id="m" data-name="Group 189">
    <g class="t">
      <g id="o" data-name="Group 180">
        <path id="p" data-name="Path 229" class="s" d="M344.66,167.8l-4.44-10.68h-5.55c-4.84.18-8.91-3.61-9.09-8.45,0-.21,0-.42,0-.63v-8.16c-.07-4.78,3.75-8.71,8.52-8.78.08,0,.17,0,.25,0h5.84l4.45-10.67c-1.25-1.15-2.78-2.43-4.14-3.87-3.48-3.37-3.57-8.93-.2-12.41.1-.1.2-.2.31-.3,1.88-1.97,3.76-3.9,5.77-5.77,3.39-3.46,8.95-3.52,12.41-.13.04.04.08.08.13.13,1.45,1.35,2.71,2.9,3.99,4.28,2.04-.94,3.66-1.73,5.32-2.42s3.36-1.25,5.28-2.01v-5.64c-.26-4.78,3.41-8.87,8.19-9.13.27-.01.55-.02.82,0h8.16c4.85-.05,8.82,3.84,8.87,8.68,0,.11,0,.23,0,.34v5.62l10.72,4.46c1.12-1.25,2.37-2.77,3.76-4.14,3.26-3.49,8.74-3.67,12.23-.41.14.13.28.27.41.41,1.96,1.87,3.89,3.79,5.77,5.77,3.5,3.36,3.61,8.91.25,12.41-.08.09-.17.17-.25.25-1.25,1.38-2.72,2.65-4.04,3.9l4.39,10.56h5.42c4.84-.25,8.97,3.47,9.22,8.31.02.3.02.6,0,.9v7.89c.17,4.8-3.58,8.84-8.38,9.01-.17,0-.33,0-.5,0h-5.7l-4.34,10.37c1.14,1.17,2.51,2.51,3.76,3.86,3.63,3.22,3.96,8.76.74,12.39-.21.24-.43.46-.67.67-1.76,1.83-3.56,3.62-5.38,5.38-3.22,3.62-8.77,3.94-12.39.71-.22-.2-.43-.41-.64-.63-1.25-1.25-2.51-2.65-3.76-4.02-1.96.88-3.65,1.69-5.38,2.41s-3.36,1.25-5.22,1.98v5.7c.19,4.8-3.55,8.83-8.34,9.02-.17,0-.34,0-.51,0-2.81.06-5.62.06-8.43,0-4.81.04-8.74-3.82-8.78-8.63,0-.05,0-.1,0-.15v-5.82l-10.77-4.43c-1.09,1.25-2.28,2.7-3.65,4-3.35,3.56-8.95,3.74-12.51.39-.13-.13-.26-.26-.39-.39-1.9-1.83-3.76-3.7-5.58-5.6-3.53-3.26-3.76-8.76-.5-12.3.18-.19.37-.38.56-.56,1.25-1.25,2.65-2.51,3.96-3.76M334.44,148.44h8.31c3.47,0,4.85,1.02,5.59,4.28.99,4.33,2.68,8.46,5.02,12.24,1.71,1.91,1.55,4.85-.36,6.57-.16.15-.34.28-.52.4-1.96,1.98-3.92,3.94-5.44,5.45l5.87,6.66c2.01-2.08,3.86-4.06,5.78-5.98,2.51-2.51,3.89-2.41,7-.88,3.79,1.9,7.69,3.54,11.7,4.91,3.76,1.25,4.74,2.12,4.74,6.08v7.99h8.4c.11-.2.2-.41.25-.63v-7.89c0-3.26,1.07-4.66,4.21-5.38,4.33-.99,8.46-2.69,12.24-5.02,1.84-1.74,4.75-1.65,6.49.19.18.19.34.39.48.61,1.94,1.99,3.76,4.14,5.45,6.02l6.61-6.46c-1.99-1.96-4.02-3.89-5.98-5.88-2.05-1.46-2.53-4.3-1.07-6.35.11-.15.22-.29.34-.42,2.33-3.78,4.02-7.91,5.02-12.24.75-3.3,2.11-4.29,5.57-4.3h8.26v-8.69h-8.35c-3.3,0-4.73-1.04-5.43-4.14-1.02-4.43-2.76-8.67-5.15-12.54-1.66-1.89-1.48-4.76.41-6.42.14-.12.28-.23.43-.33,1.97-1.98,3.99-3.91,5.84-5.7l-6.18-6.42c-1.88,1.92-3.76,3.87-5.67,5.78-1.42,2.18-4.34,2.8-6.52,1.39-.24-.15-.46-.33-.66-.52-3.7-2.29-7.75-3.96-11.99-4.94-3.34-.76-4.35-2.11-4.38-5.52v-8.35h-8.39c-.07.23-.13.46-.16.7v7.61c0,3.44-1.13,4.51-4.33,5.62-4.02,1.34-7.94,2.94-11.75,4.79-3.61,1.79-4.81,1.87-7.66-.94l-5.55-5.47-6.41,6.16c2.07,1.98,4.13,3.87,6.09,5.86,2.08,1.41,2.62,4.25,1.2,6.32-.1.15-.21.29-.33.42-2.4,3.86-4.14,8.1-5.15,12.54-.7,3.12-2.13,4.15-5.4,4.18h-8.48v8.64Z"/>
        <path id="q" data-name="Path 230" class="s" d="M386.55,117.98c14.42.01,26.09,11.71,26.08,26.13-.01,14.42-11.71,26.09-26.13,26.08-14.42-.01-26.09-11.71-26.08-26.13,0-.09,0-.18,0-.27.21-14.29,11.84-25.78,26.13-25.8M386.65,126.68c-9.61-.07-17.46,7.67-17.53,17.28-.07,9.61,7.67,17.46,17.28,17.53,9.6.07,17.44-7.65,17.53-17.25.07-9.62-7.66-17.47-17.28-17.55"/>
      </g>
    </g>
  </g>
  <g>
    <path class="s" d="M293.98,110.07H116.09c-.08-1.23-.21-2.32-.21-3.4v-52.79c0-5.3,1.22-6.56,6.41-6.56h176.48c5.24,0,6.49,1.27,6.49,6.47v35.46c7.24-10.25,16.35-19.09,26.84-26.01v-9.83c.06-1.08.06-2.17,0-3.26-.88-17.29-15.6-30.6-32.89-29.72H121.78c-1.05-.05-2.11-.05-3.16.01-17.32.94-30.6,15.74-29.66,33.06v56.99h-5.02c-11.55,0-23.1-.18-34.64,0-.81-.03-1.63-.03-2.44,0-17.3.74-30.72,15.36-29.98,32.65-.05,53.39-.03,106.77.06,160.14-.03.79-.03,1.58,0,2.36.7,17.3,15.3,30.75,32.59,30.05h44.36c1.23,0,2.44-.14,3.89-.23v-26.59h-47.02c-5.84-.01-7.01-1.12-7.01-6.83v-157.61c.01-5.82,1.28-7.07,7.28-7.07,18.59.06,37.18.24,55.76.24h180.59c.9-9.65,3.16-18.9,6.59-27.56Z"/>
    <path class="s" d="M404.1,245.92c-5.48.93-11.11,1.42-16.85,1.42-3.37,0-6.71-.17-9.99-.49v55.99c0,4.64-1.43,5.99-6.13,5.99h-24.5c-.77-.07-1.55-.07-2.32,0-7.41.63-12.91,7.15-12.28,14.56.63,7.41,7.15,12.91,14.56,12.28h23.66c1.49.11,2.99.11,4.48,0,17.42-1.2,30.57-16.3,29.37-33.72,0-18.65,0-37.33,0-56.02Z"/>
  </g>
</svg>