<svg xmlns="http://www.w3.org/2000/svg" viewBox="0 0 108.95 94.09"><defs><style>.cls-1{fill:#303232;}.cls-2{fill:none;stroke:#303232;stroke-miterlimit:10;stroke-width:5px;}</style></defs><g id="Capa_2" data-name="Capa 2"><path class="cls-1" d="M3.49,44H107.4a2.52,2.52,0,0,0,2.15-3.76L101,25.67l-4.29-7.29-2-3.43c-.79-1.33-1.41-2.84-3.17-2.95-1.6-.1-3.22,0-4.81,0H20.77a3,3,0,0,0-2.85,1.32c-.64.94-1.2,1.94-1.8,2.91L1.7,39.63l-.37.61C-.37,43,4,45.5,5.64,42.76L20.22,19.1l2.06-3.34L20.12,17H91.49l-2.16-1.24q8,13.5,15.91,27L107.4,39H3.49C.27,39,.26,44,3.49,44Z" transform="translate(-0.94 -11.96)"/><polyline class="cls-2" points="12.12 44.54 12.12 91.59 98.93 91.59 98.56 42.54"/><path class="cls-1" d="M30.49,103.55V68.41L28,70.91H48l-2.5-2.5v35.14c0,3.21,5,3.22,5,0V68.41a2.54,2.54,0,0,0-2.5-2.5H28a2.53,2.53,0,0,0-2.5,2.5v35.14c0,3.21,5,3.22,5,0Z" transform="translate(-0.94 -11.96)"/><path class="cls-1" d="M57.87,68.41V86a2.53,2.53,0,0,0,2.5,2.5H83.79a2.53,2.53,0,0,0,2.5-2.5V68.41a2.53,2.53,0,0,0-2.5-2.5H60.37c-3.22,0-3.22,5,0,5H83.79l-2.5-2.5V86l2.5-2.5H60.37l2.5,2.5V68.41C62.87,65.19,57.87,65.18,57.87,68.41Z" transform="translate(-0.94 -11.96)"/></g><g id="Capa_3" data-name="Capa 3"><path class="cls-2" d="M3.5,41.5c-.19,7.66,4.88,14,10.84,15,7.27,1.27,15.62-5.31,15.77-15-.57,8.38,6.2,15.28,13.8,15,7.26-.26,13.38-7,12.81-15C56.47,48.89,62,55,68.55,55.5c7.21.54,14-5.83,13.8-14-.24,8.49,6.9,14.79,13.79,14,6-.69,11.18-6.71,10.84-14" transform="translate(-0.94 -11.96)"/></g></svg>