<?xml version="1.0" encoding="UTF-8"?>
<svg id="a" data-name="Layer 1" xmlns="http://www.w3.org/2000/svg" viewBox="0 0 500 500">
  <defs>
    <style>
      .d {
        fill: none;
      }

      .d, .e {
        stroke-width: 0px;
      }

      .e {
        fill: #efefef;
      }
    </style>
  </defs>
  <path id="b" data-name="Path 349" class="e" d="M249.17,315.44c-12.56-.71-20.12-8.64-22.51-23.6,0-.54-.04-1.09-.12-1.63-1.19-10.49-10.66-18.03-21.15-16.84-.02,0-.05,0-.07,0-.35.05-.71.11-1.07.18-10.56,2.13-17.39,12.41-15.26,22.96,0,0,0,0,0,0,1.45,21.84,14.77,41.12,34.67,50.22,5,1.56,8.19,6.44,7.63,11.65-.16,14.19,7.33,22.38,19.12,22.19,11.39-.19,18.61-8.37,18.46-22.03-.77-5.21,2.38-10.21,7.41-11.76,30.41-14.4,43.38-50.73,28.97-81.13-9.56-20.19-29.41-33.53-51.72-34.75-3.5-.11-6.98-.61-10.37-1.49-11.55-3.27-18.62-14.91-16.19-26.67,1.95-11.1,11.59-19.2,22.86-19.21,13.49-.13,21.02,7.71,24.01,24.94v.54c1.03,10.26,10.17,17.74,20.43,16.72,10.51-1.35,18.05-10.79,17.04-21.34l-.08-.05c-.88-22.35-14.16-42.35-34.43-51.82-5.28-1.57-8.71-6.65-8.19-12.13.26-13.76-7.2-21.76-18.67-21.76-10.38-.04-18.84,8.34-18.88,18.73,0,.98.07,1.96.22,2.92.68,5.5-2.73,10.67-8.05,12.21-25.22,12.01-38.89,39.76-33.04,67.08,5.54,26.99,28.51,46.9,56.01,48.56,3.8.11,7.58.66,11.26,1.63,11.4,3.61,18.17,15.31,15.62,26.99-2.11,11.41-12.43,19.43-24.01,18.67"/>
  <g id="c" data-name="Ellipse 8">
    <circle class="d" cx="250.03" cy="249.62" r="246.49"/>
    <path class="e" d="M250.04,496.11C114.12,496.11,3.55,385.54,3.55,249.62S114.12,3.13,250.04,3.13s246.49,110.58,246.49,246.49-110.57,246.49-246.49,246.49ZM250.04,53.44c-108.18,0-196.19,88.01-196.19,196.19s88.01,196.19,196.19,196.19,196.19-88.01,196.19-196.19S358.21,53.44,250.04,53.44Z"/>
  </g>
</svg>