<?xml version="1.0" encoding="UTF-8"?>
<svg id="a" data-name="Layer 1" xmlns="http://www.w3.org/2000/svg" xmlns:xlink="http://www.w3.org/1999/xlink" viewBox="0 0 500 500">
  <defs>
    <style>
      .f {
        fill: none;
      }

      .f, .g {
        stroke-width: 0px;
      }

      .g {
        fill: #303232;
      }

      .h {
        clip-path: url(#b);
      }
    </style>
    <clipPath id="b">
      <rect class="f" x="118.87" y="30.37" width="262.25" height="439.34"/>
    </clipPath>
  </defs>
  <g class="h">
    <g id="c" data-name="Group 337">
      <path id="d" data-name="Path 370" class="g" d="M381.12,61.4c1.34-15.8-10.38-29.7-26.18-31.04-1.67-.14-3.34-.14-5.01.01h-199.6c-15.86-1.53-29.95,10.08-31.48,25.94-.19,1.93-.18,3.88.03,5.82v375.56c-1.8,15.86,9.6,30.18,25.47,31.98,2.05.23,4.13.24,6.18.04h199.15c15.83,1.53,29.9-10.06,31.43-25.88.17-1.79.18-3.6.01-5.39V61.4M278.63,63.32c-1.88,8.44-4.6,10.72-12.8,10.73h-31.64c-8.44,0-10.65-1.84-12.91-10.73h57.36ZM344.8,442.53h-189.28c-10,0-14.48-4.6-14.48-14.83V73.25c0-11.64,4.12-15.75,15.87-15.76,14.92,0,29.87.06,44.78-.06,2.67,0,4.27.61,5.05,3.33,3.1,15.51,16.23,26.58,32.05,26.58,7.81,0,17.13-.2,25.81-.2,11.06,0,22.85-10.07,26.27-20.59,3.66-9.17,3.83-9.09,13.62-9.09h40.63c6.81-.88,13.05,3.92,13.94,10.74.15,1.12.14,2.26-.02,3.38v356.71c1,6.85-3.74,13.21-10.59,14.22-1.19.17-2.4.18-3.58,0"/>
      <path id="e" data-name="Path 371" class="g" d="M277.94,403.27c-18.58-.13-37.15-.13-55.73,0-5.8-.61-11,3.59-11.61,9.39-.61,5.8,3.59,11,9.39,11.61.74.08,1.48.08,2.22,0,9.18.1,18.38,0,27.56,0s18.82.09,28.22,0c5.62.75,10.78-3.2,11.53-8.82.07-.55.1-1.11.09-1.66.13-5.73-4.41-10.49-10.15-10.62-.53-.01-1.06.02-1.59.09"/>
    </g>
  </g>
</svg>